<svg width="378" height="378" viewBox="0 0 378 378" fill="none" xmlns="http://www.w3.org/2000/svg">
<path d="M250.69 45.8362C250.69 45.8362 192.485 25.1369 135.324 58.091C78.1628 91.045 49.3895 156.447 24.638 208.837C-0.113396 261.228 14.1296 314.496 57.7433 338.824C101.357 363.152 131.015 327.303 192.198 325.564C253.381 323.825 269.832 332.564 320.604 298C371.377 263.436 380.548 181.81 340.502 121.414C300.457 61.0167 250.69 45.8362 250.69 45.8362Z" fill="#92E3A9"/>
<path opacity="0.7" d="M250.69 45.8362C250.69 45.8362 192.485 25.1369 135.324 58.091C78.1628 91.045 49.3895 156.447 24.638 208.837C-0.113396 261.228 14.1296 314.496 57.7433 338.824C101.357 363.152 131.015 327.303 192.198 325.564C253.381 323.825 269.832 332.564 320.604 298C371.377 263.436 380.548 181.81 340.502 121.414C300.457 61.0167 250.69 45.8362 250.69 45.8362Z" fill="white"/>
<path d="M254.296 99.9053H24.5927V326.917H254.296V99.9053Z" fill="white" stroke="#263238" stroke-linecap="round" stroke-linejoin="round"/>
<path d="M130.939 123.81H116.515V140.238H130.939V123.81Z" fill="white" stroke="#263238" stroke-linecap="round" stroke-linejoin="round"/>
<path d="M125.874 123.81H116.515V140.238H125.874V123.81Z" fill="white" stroke="#263238" stroke-linecap="round" stroke-linejoin="round"/>
<path d="M124.71 130.788H117.566V138.499H124.71V130.788Z" fill="#92E3A9" stroke="#263238" stroke-linecap="round" stroke-linejoin="round"/>
<path d="M118.752 123.81H104.328V140.238H118.752V123.81Z" fill="white" stroke="#263238" stroke-linecap="round" stroke-linejoin="round"/>
<path d="M113.687 123.81H104.328V140.238H113.687V123.81Z" fill="white" stroke="#263238" stroke-linecap="round" stroke-linejoin="round"/>
<path d="M112.523 130.788H105.379V138.499H112.523V130.788Z" fill="#92E3A9" stroke="#263238" stroke-linecap="round" stroke-linejoin="round"/>
<path d="M107.193 116.061H92.7688V140.238H107.193V116.061Z" fill="#92E3A9" stroke="#263238" stroke-linecap="round" stroke-linejoin="round"/>
<path d="M102.128 116.061H92.7688V140.238H102.128V116.061Z" fill="white" stroke="#263238" stroke-linecap="round" stroke-linejoin="round"/>
<path d="M100.964 126.335H93.8196V137.683H100.964V126.335Z" fill="#92E3A9" stroke="#263238" stroke-linecap="round" stroke-linejoin="round"/>
<path d="M95.0065 116.061H80.582V140.238H95.0065V116.061Z" fill="#92E3A9" stroke="#263238" stroke-linecap="round" stroke-linejoin="round"/>
<path d="M89.9413 116.061H80.582V140.238H89.9413V116.061Z" fill="#92E3A9" stroke="#263238" stroke-linecap="round" stroke-linejoin="round"/>
<path d="M88.7771 126.335H81.6329V137.683H88.7771V126.335Z" fill="white" stroke="#263238" stroke-linecap="round" stroke-linejoin="round"/>
<path d="M84.2864 123.81H69.862V140.238H84.2864V123.81Z" fill="white" stroke="#263238" stroke-linecap="round" stroke-linejoin="round"/>
<path d="M79.2212 123.81H69.862V140.238H79.2212V123.81Z" fill="white" stroke="#263238" stroke-linecap="round" stroke-linejoin="round"/>
<path d="M78.057 130.788H70.9128V138.499H78.057V130.788Z" fill="#92E3A9" stroke="#263238" stroke-linecap="round" stroke-linejoin="round"/>
<path d="M72.0997 123.81H57.6752V140.238H72.0997V123.81Z" fill="white" stroke="#263238" stroke-linecap="round" stroke-linejoin="round"/>
<path d="M67.0345 123.81H57.6752V140.238H67.0345V123.81Z" fill="white" stroke="#263238" stroke-linecap="round" stroke-linejoin="round"/>
<path d="M65.8703 130.788H58.7261V138.499H65.8703V130.788Z" fill="#92E3A9" stroke="#263238" stroke-linecap="round" stroke-linejoin="round"/>
<path d="M60.5405 116.061H46.116V140.238H60.5405V116.061Z" fill="white" stroke="#263238" stroke-linecap="round" stroke-linejoin="round"/>
<path d="M55.4753 116.061H46.116V140.238H55.4753V116.061Z" fill="white" stroke="#263238" stroke-linecap="round" stroke-linejoin="round"/>
<path d="M54.311 126.335H47.1668V137.683H54.311V126.335Z" fill="#92E3A9" stroke="#263238" stroke-linecap="round" stroke-linejoin="round"/>
<path d="M48.3537 116.061H33.9293V140.238H48.3537V116.061Z" fill="white" stroke="#263238" stroke-linecap="round" stroke-linejoin="round"/>
<path d="M43.2885 116.061H33.9293V140.238H43.2885V116.061Z" fill="white" stroke="#263238" stroke-linecap="round" stroke-linejoin="round"/>
<path d="M42.1243 126.335H34.9801V137.683H42.1243V126.335Z" fill="#92E3A9" stroke="#263238" stroke-linecap="round" stroke-linejoin="round"/>
<path d="M243.152 123.81H228.728V140.238H243.152V123.81Z" fill="white" stroke="#263238" stroke-linecap="round" stroke-linejoin="round"/>
<path d="M238.087 123.81H228.728V140.238H238.087V123.81Z" fill="white" stroke="#263238" stroke-linecap="round" stroke-linejoin="round"/>
<path d="M236.923 130.788H229.779V138.499H236.923V130.788Z" fill="#92E3A9" stroke="#263238" stroke-linecap="round" stroke-linejoin="round"/>
<path d="M230.966 123.81H216.541V140.238H230.966V123.81Z" fill="white" stroke="#263238" stroke-linecap="round" stroke-linejoin="round"/>
<path d="M225.9 123.81H216.541V140.238H225.9V123.81Z" fill="white" stroke="#263238" stroke-linecap="round" stroke-linejoin="round"/>
<path d="M224.736 130.788H217.592V138.499H224.736V130.788Z" fill="#92E3A9" stroke="#263238" stroke-linecap="round" stroke-linejoin="round"/>
<path d="M219.406 116.061H204.982V140.238H219.406V116.061Z" fill="#92E3A9" stroke="#263238" stroke-linecap="round" stroke-linejoin="round"/>
<path d="M214.341 116.061H204.982V140.238H214.341V116.061Z" fill="white" stroke="#263238" stroke-linecap="round" stroke-linejoin="round"/>
<path d="M213.177 126.335H206.033V137.683H213.177V126.335Z" fill="#92E3A9" stroke="#263238" stroke-linecap="round" stroke-linejoin="round"/>
<path d="M207.22 116.061H192.795V140.238H207.22V116.061Z" fill="#92E3A9" stroke="#263238" stroke-linecap="round" stroke-linejoin="round"/>
<path d="M202.154 116.061H192.795V140.238H202.154V116.061Z" fill="#92E3A9" stroke="#263238" stroke-linecap="round" stroke-linejoin="round"/>
<path d="M200.99 126.335H193.846V137.683H200.99V126.335Z" fill="white" stroke="#263238" stroke-linecap="round" stroke-linejoin="round"/>
<path d="M196.507 123.81H182.083V140.238H196.507V123.81Z" fill="white" stroke="#263238" stroke-linecap="round" stroke-linejoin="round"/>
<path d="M191.442 123.81H182.083V140.238H191.442V123.81Z" fill="white" stroke="#263238" stroke-linecap="round" stroke-linejoin="round"/>
<path d="M190.27 130.788H183.126V138.499H190.27V130.788Z" fill="#92E3A9" stroke="#263238" stroke-linecap="round" stroke-linejoin="round"/>
<path d="M184.313 123.81H169.888V140.238H184.313V123.81Z" fill="white" stroke="#263238" stroke-linecap="round" stroke-linejoin="round"/>
<path d="M179.248 123.81H169.888V140.238H179.248V123.81Z" fill="white" stroke="#263238" stroke-linecap="round" stroke-linejoin="round"/>
<path d="M178.083 130.788H170.939V138.499H178.083V130.788Z" fill="#92E3A9" stroke="#263238" stroke-linecap="round" stroke-linejoin="round"/>
<path d="M172.761 116.061H158.337V140.238H172.761V116.061Z" fill="white" stroke="#263238" stroke-linecap="round" stroke-linejoin="round"/>
<path d="M167.696 116.061H158.337V140.238H167.696V116.061Z" fill="white" stroke="#263238" stroke-linecap="round" stroke-linejoin="round"/>
<path d="M166.524 126.335H159.38V137.683H166.524V126.335Z" fill="#92E3A9" stroke="#263238" stroke-linecap="round" stroke-linejoin="round"/>
<path d="M160.567 116.061H146.142V140.238H160.567V116.061Z" fill="white" stroke="#263238" stroke-linecap="round" stroke-linejoin="round"/>
<path d="M155.502 116.061H146.142V140.238H155.502V116.061Z" fill="white" stroke="#263238" stroke-linecap="round" stroke-linejoin="round"/>
<path d="M154.337 126.335H147.193V137.683H154.337V126.335Z" fill="#92E3A9" stroke="#263238" stroke-linecap="round" stroke-linejoin="round"/>
<path d="M130.939 251.279H116.515V267.707H130.939V251.279Z" fill="white" stroke="#263238" stroke-linecap="round" stroke-linejoin="round"/>
<path d="M125.874 251.279H116.515V267.707H125.874V251.279Z" fill="white" stroke="#263238" stroke-linecap="round" stroke-linejoin="round"/>
<path d="M124.71 258.257H117.566V265.968H124.71V258.257Z" fill="#92E3A9" stroke="#263238" stroke-linecap="round" stroke-linejoin="round"/>
<path d="M118.752 251.279H104.328V267.707H118.752V251.279Z" fill="white" stroke="#263238" stroke-linecap="round" stroke-linejoin="round"/>
<path d="M113.687 251.279H104.328V267.707H113.687V251.279Z" fill="white" stroke="#263238" stroke-linecap="round" stroke-linejoin="round"/>
<path d="M112.523 258.257H105.379V265.968H112.523V258.257Z" fill="#92E3A9" stroke="#263238" stroke-linecap="round" stroke-linejoin="round"/>
<path d="M107.193 243.53H92.7688V267.707H107.193V243.53Z" fill="#92E3A9" stroke="#263238" stroke-linecap="round" stroke-linejoin="round"/>
<path d="M102.128 243.53H92.7688V267.707H102.128V243.53Z" fill="white" stroke="#263238" stroke-linecap="round" stroke-linejoin="round"/>
<path d="M100.964 253.797H93.8196V265.144H100.964V253.797Z" fill="#92E3A9" stroke="#263238" stroke-linecap="round" stroke-linejoin="round"/>
<path d="M95.0065 243.53H80.582V267.707H95.0065V243.53Z" fill="#92E3A9" stroke="#263238" stroke-linecap="round" stroke-linejoin="round"/>
<path d="M89.9413 243.53H80.582V267.707H89.9413V243.53Z" fill="#92E3A9" stroke="#263238" stroke-linecap="round" stroke-linejoin="round"/>
<path d="M88.7771 253.797H81.6329V265.144H88.7771V253.797Z" fill="white" stroke="#263238" stroke-linecap="round" stroke-linejoin="round"/>
<path d="M84.2864 251.279H69.862V267.707H84.2864V251.279Z" fill="white" stroke="#263238" stroke-linecap="round" stroke-linejoin="round"/>
<path d="M79.2212 251.279H69.862V267.707H79.2212V251.279Z" fill="white" stroke="#263238" stroke-linecap="round" stroke-linejoin="round"/>
<path d="M78.057 258.257H70.9128V265.968H78.057V258.257Z" fill="#92E3A9" stroke="#263238" stroke-linecap="round" stroke-linejoin="round"/>
<path d="M72.0997 251.279H57.6752V267.707H72.0997V251.279Z" fill="white" stroke="#263238" stroke-linecap="round" stroke-linejoin="round"/>
<path d="M67.0345 251.279H57.6752V267.707H67.0345V251.279Z" fill="white" stroke="#263238" stroke-linecap="round" stroke-linejoin="round"/>
<path d="M65.8703 258.257H58.7261V265.968H65.8703V258.257Z" fill="#92E3A9" stroke="#263238" stroke-linecap="round" stroke-linejoin="round"/>
<path d="M60.5405 243.53H46.116V267.707H60.5405V243.53Z" fill="white" stroke="#263238" stroke-linecap="round" stroke-linejoin="round"/>
<path d="M55.4753 243.53H46.116V267.707H55.4753V243.53Z" fill="white" stroke="#263238" stroke-linecap="round" stroke-linejoin="round"/>
<path d="M54.311 253.797H47.1668V265.144H54.311V253.797Z" fill="#92E3A9" stroke="#263238" stroke-linecap="round" stroke-linejoin="round"/>
<path d="M48.3537 243.53H33.9293V267.707H48.3537V243.53Z" fill="white" stroke="#263238" stroke-linecap="round" stroke-linejoin="round"/>
<path d="M43.2885 243.53H33.9293V267.707H43.2885V243.53Z" fill="white" stroke="#263238" stroke-linecap="round" stroke-linejoin="round"/>
<path d="M42.1243 253.797H34.9801V265.144H42.1243V253.797Z" fill="#92E3A9" stroke="#263238" stroke-linecap="round" stroke-linejoin="round"/>
<path d="M243.152 251.279H228.728V267.707H243.152V251.279Z" fill="white" stroke="#263238" stroke-linecap="round" stroke-linejoin="round"/>
<path d="M238.087 251.279H228.728V267.707H238.087V251.279Z" fill="white" stroke="#263238" stroke-linecap="round" stroke-linejoin="round"/>
<path d="M236.923 258.257H229.779V265.968H236.923V258.257Z" fill="#92E3A9" stroke="#263238" stroke-linecap="round" stroke-linejoin="round"/>
<path d="M230.966 251.279H216.541V267.707H230.966V251.279Z" fill="white" stroke="#263238" stroke-linecap="round" stroke-linejoin="round"/>
<path d="M225.9 251.279H216.541V267.707H225.9V251.279Z" fill="white" stroke="#263238" stroke-linecap="round" stroke-linejoin="round"/>
<path d="M224.736 258.257H217.592V265.968H224.736V258.257Z" fill="#92E3A9" stroke="#263238" stroke-linecap="round" stroke-linejoin="round"/>
<path d="M219.406 243.53H204.982V267.707H219.406V243.53Z" fill="#92E3A9" stroke="#263238" stroke-linecap="round" stroke-linejoin="round"/>
<path d="M214.341 243.53H204.982V267.707H214.341V243.53Z" fill="white" stroke="#263238" stroke-linecap="round" stroke-linejoin="round"/>
<path d="M213.177 253.797H206.033V265.144H213.177V253.797Z" fill="#92E3A9" stroke="#263238" stroke-linecap="round" stroke-linejoin="round"/>
<path d="M207.22 243.53H192.795V267.707H207.22V243.53Z" fill="#92E3A9" stroke="#263238" stroke-linecap="round" stroke-linejoin="round"/>
<path d="M202.154 243.53H192.795V267.707H202.154V243.53Z" fill="#92E3A9" stroke="#263238" stroke-linecap="round" stroke-linejoin="round"/>
<path d="M200.99 253.797H193.846V265.144H200.99V253.797Z" fill="white" stroke="#263238" stroke-linecap="round" stroke-linejoin="round"/>
<path d="M196.507 251.279H182.083V267.707H196.507V251.279Z" fill="white" stroke="#263238" stroke-linecap="round" stroke-linejoin="round"/>
<path d="M191.442 251.279H182.083V267.707H191.442V251.279Z" fill="white" stroke="#263238" stroke-linecap="round" stroke-linejoin="round"/>
<path d="M190.27 258.257H183.126V265.968H190.27V258.257Z" fill="#92E3A9" stroke="#263238" stroke-linecap="round" stroke-linejoin="round"/>
<path d="M184.313 251.279H169.888V267.707H184.313V251.279Z" fill="white" stroke="#263238" stroke-linecap="round" stroke-linejoin="round"/>
<path d="M179.248 251.279H169.888V267.707H179.248V251.279Z" fill="white" stroke="#263238" stroke-linecap="round" stroke-linejoin="round"/>
<path d="M178.083 258.257H170.939V265.968H178.083V258.257Z" fill="#92E3A9" stroke="#263238" stroke-linecap="round" stroke-linejoin="round"/>
<path d="M172.761 243.53H158.337V267.707H172.761V243.53Z" fill="white" stroke="#263238" stroke-linecap="round" stroke-linejoin="round"/>
<path d="M167.696 243.53H158.337V267.707H167.696V243.53Z" fill="white" stroke="#263238" stroke-linecap="round" stroke-linejoin="round"/>
<path d="M166.524 253.797H159.38V265.144H166.524V253.797Z" fill="#92E3A9" stroke="#263238" stroke-linecap="round" stroke-linejoin="round"/>
<path d="M160.567 243.53H146.142V267.707H160.567V243.53Z" fill="white" stroke="#263238" stroke-linecap="round" stroke-linejoin="round"/>
<path d="M155.502 243.53H146.142V267.707H155.502V243.53Z" fill="white" stroke="#263238" stroke-linecap="round" stroke-linejoin="round"/>
<path d="M154.337 253.797H147.193V265.144H154.337V253.797Z" fill="#92E3A9" stroke="#263238" stroke-linecap="round" stroke-linejoin="round"/>
<path d="M34.02 164.332H38.8508C39.9376 164.332 40.9798 164.763 41.7482 165.532C42.5167 166.3 42.9484 167.343 42.9484 168.429V182.4H29.9376V168.429C29.9376 167.345 30.3672 166.305 31.1324 165.537C31.8975 164.769 32.9359 164.336 34.02 164.332Z" fill="#92E3A9" stroke="#263238" stroke-linecap="round" stroke-linejoin="round"/>
<path d="M39.3952 159.289H34.0351V164.332H39.3952V159.289Z" fill="#263238" stroke="#263238" stroke-linecap="round" stroke-linejoin="round"/>
<path d="M39.3952 169.798H30.9884V178.204H39.3952V169.798Z" fill="white" stroke="#263238" stroke-linecap="round" stroke-linejoin="round"/>
<path d="M49.3743 164.332H54.2052C55.2919 164.332 56.3341 164.763 57.1026 165.532C57.871 166.3 58.3027 167.343 58.3027 168.429V182.4H45.2768V168.429C45.2768 167.891 45.3828 167.358 45.5887 166.861C45.7947 166.364 46.0965 165.912 46.477 165.532C46.8575 165.151 47.3092 164.85 47.8063 164.644C48.3034 164.438 48.8362 164.332 49.3743 164.332Z" fill="#92E3A9" stroke="#263238" stroke-linecap="round" stroke-linejoin="round"/>
<path d="M54.7344 159.289H49.3744V164.332H54.7344V159.289Z" fill="#263238" stroke="#263238" stroke-linecap="round" stroke-linejoin="round"/>
<path d="M54.7344 169.798H46.3277V178.204H54.7344V169.798Z" fill="white" stroke="#263238" stroke-linecap="round" stroke-linejoin="round"/>
<path d="M64.7136 154.662H69.552C70.6374 154.664 71.6777 155.097 72.4445 155.865C73.2113 156.633 73.642 157.674 73.642 158.76V182.4H60.6161V158.76C60.6161 157.673 61.0478 156.631 61.8162 155.862C62.5847 155.094 63.6269 154.662 64.7136 154.662Z" fill="#92E3A9" stroke="#263238" stroke-linecap="round" stroke-linejoin="round"/>
<path d="M70.0736 149.62H64.7136V154.662H70.0736V149.62Z" fill="#263238" stroke="#263238" stroke-linecap="round" stroke-linejoin="round"/>
<path d="M70.0737 160.128H61.6669V178.197H70.0737V160.128Z" fill="white" stroke="#263238" stroke-linecap="round" stroke-linejoin="round"/>
<path d="M80.0528 164.332H84.8837C85.9704 164.332 87.0126 164.763 87.7811 165.532C88.5495 166.3 88.9812 167.343 88.9812 168.429V182.4H75.9553V168.429C75.9553 167.343 76.387 166.3 77.1555 165.532C77.9239 164.763 78.9661 164.332 80.0528 164.332Z" fill="#92E3A9" stroke="#263238" stroke-linecap="round" stroke-linejoin="round"/>
<path d="M85.4129 159.289H80.0528V164.332H85.4129V159.289Z" fill="#263238" stroke="#263238" stroke-linecap="round" stroke-linejoin="round"/>
<path d="M85.4129 169.798H77.0062V178.204H85.4129V169.798Z" fill="white" stroke="#263238" stroke-linecap="round" stroke-linejoin="round"/>
<path d="M95.3921 164.332H100.223C101.31 164.332 102.352 164.763 103.12 165.532C103.889 166.3 104.32 167.343 104.32 168.429V182.4H91.2946V168.429C91.2946 167.343 91.7263 166.3 92.4947 165.532C93.2631 164.763 94.3053 164.332 95.3921 164.332Z" fill="#92E3A9" stroke="#263238" stroke-linecap="round" stroke-linejoin="round"/>
<path d="M100.752 159.289H95.3921V164.332H100.752V159.289Z" fill="#263238" stroke="#263238" stroke-linecap="round" stroke-linejoin="round"/>
<path d="M100.752 169.798H92.3454V178.204H100.752V169.798Z" fill="white" stroke="#263238" stroke-linecap="round" stroke-linejoin="round"/>
<path d="M110.739 159.289H115.57C116.656 159.289 117.699 159.721 118.467 160.489C119.236 161.258 119.667 162.3 119.667 163.387V182.408H106.634V163.387C106.634 162.848 106.74 162.314 106.946 161.817C107.153 161.319 107.455 160.867 107.837 160.487C108.218 160.106 108.67 159.804 109.168 159.599C109.667 159.393 110.2 159.288 110.739 159.289Z" fill="#92E3A9" stroke="#263238" stroke-linecap="round" stroke-linejoin="round"/>
<path d="M116.099 154.247H110.739V159.289H116.099V154.247Z" fill="#263238" stroke="#263238" stroke-linecap="round" stroke-linejoin="round"/>
<path d="M116.091 164.748H107.685V178.197H116.091V164.748Z" fill="white" stroke="#263238" stroke-linecap="round" stroke-linejoin="round"/>
<path d="M151.54 164.332H156.371C157.458 164.332 158.5 164.763 159.268 165.532C160.037 166.3 160.469 167.342 160.469 168.429V182.4H147.42V168.429C147.42 167.889 147.527 167.354 147.734 166.856C147.941 166.357 148.245 165.904 148.628 165.524C149.011 165.143 149.465 164.842 149.965 164.637C150.465 164.432 151 164.329 151.54 164.332Z" fill="#92E3A9" stroke="#263238" stroke-linecap="round" stroke-linejoin="round"/>
<path d="M156.9 159.289H151.54V164.332H156.9V159.289Z" fill="#263238" stroke="#263238" stroke-linecap="round" stroke-linejoin="round"/>
<path d="M156.9 169.798H148.494V178.204H156.9V169.798Z" fill="white" stroke="#263238" stroke-linecap="round" stroke-linejoin="round"/>
<path d="M166.879 164.332H171.71C172.797 164.332 173.839 164.763 174.608 165.532C175.376 166.3 175.808 167.343 175.808 168.429V182.4H162.782V168.429C162.782 167.343 163.214 166.3 163.982 165.532C164.75 164.763 165.793 164.332 166.879 164.332Z" fill="#92E3A9" stroke="#263238" stroke-linecap="round" stroke-linejoin="round"/>
<path d="M172.239 159.289H166.879V164.332H172.239V159.289Z" fill="#263238" stroke="#263238" stroke-linecap="round" stroke-linejoin="round"/>
<path d="M172.239 169.798H163.833V178.204H172.239V169.798Z" fill="white" stroke="#263238" stroke-linecap="round" stroke-linejoin="round"/>
<path d="M182.196 154.662H187.027C188.114 154.662 189.156 155.094 189.924 155.862C190.693 156.631 191.124 157.673 191.124 158.76V182.4H178.129V158.76C178.129 157.678 178.556 156.641 179.318 155.873C180.08 155.106 181.115 154.67 182.196 154.662Z" fill="#92E3A9" stroke="#263238" stroke-linecap="round" stroke-linejoin="round"/>
<path d="M187.586 149.62H182.226V154.662H187.586V149.62Z" fill="#263238" stroke="#263238" stroke-linecap="round" stroke-linejoin="round"/>
<path d="M187.586 160.128H179.18V178.197H187.586V160.128Z" fill="white" stroke="#263238" stroke-linecap="round" stroke-linejoin="round"/>
<path d="M197.565 164.332H202.396C202.934 164.332 203.467 164.438 203.964 164.644C204.461 164.85 204.913 165.151 205.294 165.532C205.674 165.912 205.976 166.364 206.182 166.861C206.388 167.358 206.494 167.891 206.494 168.429V182.4H193.468V168.429C193.468 167.343 193.9 166.3 194.668 165.532C195.436 164.763 196.479 164.332 197.565 164.332Z" fill="#92E3A9" stroke="#263238" stroke-linecap="round" stroke-linejoin="round"/>
<path d="M202.926 159.289H197.565V164.332H202.926V159.289Z" fill="#263238" stroke="#263238" stroke-linecap="round" stroke-linejoin="round"/>
<path d="M202.926 169.798H194.519V178.204H202.926V169.798Z" fill="white" stroke="#263238" stroke-linecap="round" stroke-linejoin="round"/>
<path d="M212.905 164.332H217.728C218.266 164.332 218.799 164.438 219.296 164.644C219.793 164.85 220.245 165.151 220.625 165.532C221.006 165.912 221.308 166.364 221.514 166.861C221.72 167.358 221.826 167.891 221.826 168.429V182.4H208.807V168.429C208.807 167.343 209.239 166.3 210.007 165.532C210.776 164.763 211.818 164.332 212.905 164.332Z" fill="#92E3A9" stroke="#263238" stroke-linecap="round" stroke-linejoin="round"/>
<path d="M218.265 159.289H212.905V164.332H218.265V159.289Z" fill="#263238" stroke="#263238" stroke-linecap="round" stroke-linejoin="round"/>
<path d="M218.265 169.798H209.858V178.204H218.265V169.798Z" fill="white" stroke="#263238" stroke-linecap="round" stroke-linejoin="round"/>
<path d="M228.244 159.289H233.075C234.162 159.289 235.204 159.721 235.972 160.489C236.741 161.258 237.172 162.3 237.172 163.387V182.408H224.146V163.387C224.146 162.3 224.578 161.258 225.347 160.489C226.115 159.721 227.157 159.289 228.244 159.289Z" fill="#92E3A9" stroke="#263238" stroke-linecap="round" stroke-linejoin="round"/>
<path d="M233.604 154.247H228.244V159.289H233.604V154.247Z" fill="#263238" stroke="#263238" stroke-linecap="round" stroke-linejoin="round"/>
<path d="M233.604 164.748H225.197V178.197H233.604V164.748Z" fill="white" stroke="#263238" stroke-linecap="round" stroke-linejoin="round"/>
<path d="M34.02 292.889H38.8508C39.9376 292.889 40.9798 293.321 41.7482 294.09C42.5167 294.858 42.9484 295.9 42.9484 296.987V310.958H29.9376V296.987C29.9376 295.903 30.3672 294.863 31.1324 294.095C31.8975 293.327 32.9359 292.893 34.02 292.889Z" fill="#92E3A9" stroke="#263238" stroke-linecap="round" stroke-linejoin="round"/>
<path d="M39.3952 287.847H34.0351V292.889H39.3952V287.847Z" fill="#263238" stroke="#263238" stroke-linecap="round" stroke-linejoin="round"/>
<path d="M39.3952 298.348H30.9884V306.755H39.3952V298.348Z" fill="white" stroke="#263238" stroke-linecap="round" stroke-linejoin="round"/>
<path d="M49.3743 292.889H54.2052C55.2919 292.889 56.3341 293.321 57.1026 294.09C57.871 294.858 58.3027 295.9 58.3027 296.987V310.958H45.2768V296.987C45.2768 296.449 45.3828 295.916 45.5887 295.419C45.7947 294.922 46.0965 294.47 46.477 294.09C46.8575 293.709 47.3092 293.407 47.8063 293.201C48.3034 292.995 48.8362 292.889 49.3743 292.889Z" fill="#92E3A9" stroke="#263238" stroke-linecap="round" stroke-linejoin="round"/>
<path d="M54.7344 287.847H49.3744V292.889H54.7344V287.847Z" fill="#263238" stroke="#263238" stroke-linecap="round" stroke-linejoin="round"/>
<path d="M54.7344 298.348H46.3277V306.755H54.7344V298.348Z" fill="white" stroke="#263238" stroke-linecap="round" stroke-linejoin="round"/>
<path d="M64.7136 283.22H69.552C70.6387 283.22 71.681 283.652 72.4494 284.42C73.2178 285.189 73.6495 286.231 73.6495 287.318V310.958H60.6161V287.318C60.6161 286.231 61.0478 285.189 61.8162 284.42C62.5847 283.652 63.6269 283.22 64.7136 283.22Z" fill="#92E3A9" stroke="#263238" stroke-linecap="round" stroke-linejoin="round"/>
<path d="M70.0736 278.178H64.7136V283.22H70.0736V278.178Z" fill="#263238" stroke="#263238" stroke-linecap="round" stroke-linejoin="round"/>
<path d="M70.0737 288.686H61.6669V306.754H70.0737V288.686Z" fill="white" stroke="#263238" stroke-linecap="round" stroke-linejoin="round"/>
<path d="M80.0528 292.889H84.8837C85.9704 292.889 87.0126 293.321 87.7811 294.09C88.5495 294.858 88.9812 295.9 88.9812 296.987V310.958H75.9553V296.987C75.9553 295.9 76.387 294.858 77.1555 294.09C77.9239 293.321 78.9661 292.889 80.0528 292.889Z" fill="#92E3A9" stroke="#263238" stroke-linecap="round" stroke-linejoin="round"/>
<path d="M85.4129 287.847H80.0528V292.889H85.4129V287.847Z" fill="#263238" stroke="#263238" stroke-linecap="round" stroke-linejoin="round"/>
<path d="M85.4129 298.348H77.0062V306.755H85.4129V298.348Z" fill="white" stroke="#263238" stroke-linecap="round" stroke-linejoin="round"/>
<path d="M95.3921 292.889H100.223C101.31 292.889 102.352 293.321 103.12 294.09C103.889 294.858 104.32 295.9 104.32 296.987V310.958H91.2946V296.987C91.2946 295.9 91.7263 294.858 92.4947 294.09C93.2631 293.321 94.3053 292.889 95.3921 292.889Z" fill="#92E3A9" stroke="#263238" stroke-linecap="round" stroke-linejoin="round"/>
<path d="M100.752 287.847H95.3921V292.889H100.752V287.847Z" fill="#263238" stroke="#263238" stroke-linecap="round" stroke-linejoin="round"/>
<path d="M100.752 298.348H92.3454V306.755H100.752V298.348Z" fill="white" stroke="#263238" stroke-linecap="round" stroke-linejoin="round"/>
<path d="M110.739 287.847H115.57C116.656 287.847 117.699 288.279 118.467 289.047C119.236 289.816 119.667 290.858 119.667 291.944V310.965H106.634V291.944C106.634 291.406 106.74 290.872 106.946 290.375C107.153 289.877 107.455 289.425 107.837 289.044C108.218 288.664 108.67 288.362 109.168 288.157C109.667 287.951 110.2 287.846 110.739 287.847Z" fill="#92E3A9" stroke="#263238" stroke-linecap="round" stroke-linejoin="round"/>
<path d="M116.099 282.804H110.739V287.847H116.099V282.804Z" fill="#263238" stroke="#263238" stroke-linecap="round" stroke-linejoin="round"/>
<path d="M116.091 293.305H107.685V306.754H116.091V293.305Z" fill="white" stroke="#263238" stroke-linecap="round" stroke-linejoin="round"/>
<path d="M151.54 292.889H156.371C157.458 292.889 158.5 293.321 159.268 294.09C160.037 294.858 160.469 295.9 160.469 296.987V310.958H147.42V296.987C147.42 296.447 147.527 295.912 147.734 295.414C147.941 294.915 148.245 294.462 148.628 294.082C149.011 293.701 149.465 293.399 149.965 293.195C150.465 292.99 151 292.886 151.54 292.889Z" fill="#92E3A9" stroke="#263238" stroke-linecap="round" stroke-linejoin="round"/>
<path d="M156.9 287.847H151.54V292.889H156.9V287.847Z" fill="#263238" stroke="#263238" stroke-linecap="round" stroke-linejoin="round"/>
<path d="M156.9 298.348H148.494V306.755H156.9V298.348Z" fill="white" stroke="#263238" stroke-linecap="round" stroke-linejoin="round"/>
<path d="M166.879 292.889H171.71C172.797 292.889 173.839 293.321 174.608 294.09C175.376 294.858 175.808 295.9 175.808 296.987V310.958H162.782V296.987C162.782 295.9 163.214 294.858 163.982 294.09C164.75 293.321 165.793 292.889 166.879 292.889Z" fill="#92E3A9" stroke="#263238" stroke-linecap="round" stroke-linejoin="round"/>
<path d="M172.239 287.847H166.879V292.889H172.239V287.847Z" fill="#263238" stroke="#263238" stroke-linecap="round" stroke-linejoin="round"/>
<path d="M172.239 298.348H163.833V306.755H172.239V298.348Z" fill="white" stroke="#263238" stroke-linecap="round" stroke-linejoin="round"/>
<path d="M182.196 283.22H187.027C188.114 283.22 189.156 283.652 189.924 284.42C190.693 285.189 191.124 286.231 191.124 287.318V310.958H178.129V287.318C178.129 286.236 178.556 285.199 179.318 284.431C180.08 283.663 181.115 283.228 182.196 283.22Z" fill="#92E3A9" stroke="#263238" stroke-linecap="round" stroke-linejoin="round"/>
<path d="M187.586 278.178H182.226V283.22H187.586V278.178Z" fill="#263238" stroke="#263238" stroke-linecap="round" stroke-linejoin="round"/>
<path d="M187.586 288.686H179.18V306.754H187.586V288.686Z" fill="white" stroke="#263238" stroke-linecap="round" stroke-linejoin="round"/>
<path d="M197.565 292.889H202.396C202.934 292.889 203.467 292.995 203.964 293.201C204.461 293.407 204.913 293.709 205.294 294.09C205.674 294.47 205.976 294.922 206.182 295.419C206.388 295.916 206.494 296.449 206.494 296.987V310.958H193.468V296.987C193.468 295.9 193.9 294.858 194.668 294.09C195.436 293.321 196.479 292.889 197.565 292.889Z" fill="#92E3A9" stroke="#263238" stroke-linecap="round" stroke-linejoin="round"/>
<path d="M202.926 287.847H197.565V292.889H202.926V287.847Z" fill="#263238" stroke="#263238" stroke-linecap="round" stroke-linejoin="round"/>
<path d="M202.926 298.348H194.519V306.755H202.926V298.348Z" fill="white" stroke="#263238" stroke-linecap="round" stroke-linejoin="round"/>
<path d="M212.905 292.889H217.728C218.266 292.889 218.799 292.995 219.296 293.201C219.793 293.407 220.245 293.709 220.625 294.09C221.006 294.47 221.308 294.922 221.514 295.419C221.72 295.916 221.826 296.449 221.826 296.987V310.958H208.807V296.987C208.807 295.9 209.239 294.858 210.007 294.09C210.776 293.321 211.818 292.889 212.905 292.889Z" fill="#92E3A9" stroke="#263238" stroke-linecap="round" stroke-linejoin="round"/>
<path d="M218.265 287.847H212.905V292.889H218.265V287.847Z" fill="#263238" stroke="#263238" stroke-linecap="round" stroke-linejoin="round"/>
<path d="M218.265 298.348H209.858V306.755H218.265V298.348Z" fill="white" stroke="#263238" stroke-linecap="round" stroke-linejoin="round"/>
<path d="M228.244 287.847H233.075C234.162 287.847 235.204 288.279 235.972 289.047C236.741 289.816 237.172 290.858 237.172 291.944V310.965H224.146V291.944C224.146 290.858 224.578 289.816 225.347 289.047C226.115 288.279 227.157 287.847 228.244 287.847Z" fill="#92E3A9" stroke="#263238" stroke-linecap="round" stroke-linejoin="round"/>
<path d="M233.604 282.804H228.244V287.847H233.604V282.804Z" fill="#263238" stroke="#263238" stroke-linecap="round" stroke-linejoin="round"/>
<path d="M233.604 293.305H225.197V306.754H233.604V293.305Z" fill="white" stroke="#263238" stroke-linecap="round" stroke-linejoin="round"/>
<path d="M43.0239 199.138H31.0414L34.0351 224.857H40.0302L43.0239 199.138Z" fill="white" stroke="#263238" stroke-linecap="round" stroke-linejoin="round"/>
<path d="M33.5588 220.767L34.0351 224.857H40.0302L40.5065 220.767H33.5588Z" fill="#263238" stroke="#263238" stroke-linecap="round" stroke-linejoin="round"/>
<path d="M39.2213 204.105H34.2544V216.382H39.2213V204.105Z" fill="#92E3A9" stroke="#263238" stroke-linecap="round" stroke-linejoin="round"/>
<path d="M57.645 199.138H45.6548L48.6562 224.857H54.6437L57.645 199.138Z" fill="white" stroke="#263238" stroke-linecap="round" stroke-linejoin="round"/>
<path d="M48.1799 220.767L48.6562 224.857H54.6437L55.12 220.767H48.1799Z" fill="#263238" stroke="#263238" stroke-linecap="round" stroke-linejoin="round"/>
<path d="M53.8423 204.105H48.8754V216.382H53.8423V204.105Z" fill="#92E3A9" stroke="#263238" stroke-linecap="round" stroke-linejoin="round"/>
<path d="M72.2585 199.138H60.2683L63.2696 224.857H69.2572L72.2585 199.138Z" fill="white" stroke="#263238" stroke-linecap="round" stroke-linejoin="round"/>
<path d="M62.7934 220.767L63.2696 224.857H69.2572L69.741 220.767H62.7934Z" fill="#263238" stroke="#263238" stroke-linecap="round" stroke-linejoin="round"/>
<path d="M68.4558 204.105H63.4889V216.382H68.4558V204.105Z" fill="#92E3A9" stroke="#263238" stroke-linecap="round" stroke-linejoin="round"/>
<path d="M86.872 199.138H74.8894L77.8831 224.857H83.8782L86.872 199.138Z" fill="white" stroke="#263238" stroke-linecap="round" stroke-linejoin="round"/>
<path d="M77.4068 220.767L77.8831 224.857H83.8782L84.3545 220.767H77.4068Z" fill="#263238" stroke="#263238" stroke-linecap="round" stroke-linejoin="round"/>
<path d="M83.0693 204.105H78.1024V216.382H83.0693V204.105Z" fill="#92E3A9" stroke="#263238" stroke-linecap="round" stroke-linejoin="round"/>
<path d="M103.073 211.121H90.4025V215.505H103.073V211.121Z" fill="#263238" stroke="#263238" stroke-linecap="round" stroke-linejoin="round"/>
<path d="M105.001 215.505H88.4822V225.152H105.001V215.505Z" fill="#92E3A9" stroke="#263238" stroke-linecap="round" stroke-linejoin="round"/>
<path d="M102.672 217.554H90.7956V223.111H102.672V217.554Z" fill="white" stroke="#263238" stroke-linecap="round" stroke-linejoin="round"/>
<path d="M121.784 211.121H109.113V215.505H121.784V211.121Z" fill="#263238" stroke="#263238" stroke-linecap="round" stroke-linejoin="round"/>
<path d="M123.704 215.505H107.186V225.152H123.704V215.505Z" fill="#92E3A9" stroke="#263238" stroke-linecap="round" stroke-linejoin="round"/>
<path d="M121.383 217.554H109.507V223.111H121.383V217.554Z" fill="white" stroke="#263238" stroke-linecap="round" stroke-linejoin="round"/>
<path d="M159.947 199.138H147.964L150.958 224.857H156.953L159.947 199.138Z" fill="white" stroke="#263238" stroke-linecap="round" stroke-linejoin="round"/>
<path d="M150.482 220.767L150.958 224.857H156.953L157.429 220.767H150.482Z" fill="#263238" stroke="#263238" stroke-linecap="round" stroke-linejoin="round"/>
<path d="M156.144 204.105H151.177V216.382H156.144V204.105Z" fill="#92E3A9" stroke="#263238" stroke-linecap="round" stroke-linejoin="round"/>
<path d="M174.568 199.138H162.578L165.579 224.857H171.567L174.568 199.138Z" fill="white" stroke="#263238" stroke-linecap="round" stroke-linejoin="round"/>
<path d="M165.103 220.767L165.579 224.857H171.567L172.043 220.767H165.103Z" fill="#263238" stroke="#263238" stroke-linecap="round" stroke-linejoin="round"/>
<path d="M170.765 204.105H165.798V216.382H170.765V204.105Z" fill="#92E3A9" stroke="#263238" stroke-linecap="round" stroke-linejoin="round"/>
<path d="M189.181 199.138H177.199L180.193 224.857H186.188L189.181 199.138Z" fill="white" stroke="#263238" stroke-linecap="round" stroke-linejoin="round"/>
<path d="M179.716 220.767L180.193 224.857H186.188L186.664 220.767H179.716Z" fill="#263238" stroke="#263238" stroke-linecap="round" stroke-linejoin="round"/>
<path d="M185.379 204.105H180.412V216.382H185.379V204.105Z" fill="#92E3A9" stroke="#263238" stroke-linecap="round" stroke-linejoin="round"/>
<path d="M203.795 199.138H191.812L194.806 224.857H200.801L203.795 199.138Z" fill="white" stroke="#263238" stroke-linecap="round" stroke-linejoin="round"/>
<path d="M194.33 220.767L194.806 224.857H200.801L201.277 220.767H194.33Z" fill="#263238" stroke="#263238" stroke-linecap="round" stroke-linejoin="round"/>
<path d="M199.992 204.105H195.025V216.382H199.992V204.105Z" fill="#92E3A9" stroke="#263238" stroke-linecap="round" stroke-linejoin="round"/>
<path d="M219.996 211.121H207.325V215.505H219.996V211.121Z" fill="#263238" stroke="#263238" stroke-linecap="round" stroke-linejoin="round"/>
<path d="M221.924 215.505H205.405V225.152H221.924V215.505Z" fill="#92E3A9" stroke="#263238" stroke-linecap="round" stroke-linejoin="round"/>
<path d="M219.603 217.554H207.726V223.111H219.603V217.554Z" fill="white" stroke="#263238" stroke-linecap="round" stroke-linejoin="round"/>
<path d="M238.707 211.121H226.036V215.505H238.707V211.121Z" fill="#263238" stroke="#263238" stroke-linecap="round" stroke-linejoin="round"/>
<path d="M240.627 215.505H224.109V225.152H240.627V215.505Z" fill="#92E3A9" stroke="#263238" stroke-linecap="round" stroke-linejoin="round"/>
<path d="M238.306 217.554H226.43V223.111H238.306V217.554Z" fill="white" stroke="#263238" stroke-linecap="round" stroke-linejoin="round"/>
<path d="M254.084 144.819V139.346H25.9081V144.819H254.084Z" fill="white" stroke="#263238" stroke-linecap="round" stroke-linejoin="round"/>
<path d="M254.092 187.495V182.022H25.9157V187.495H254.092Z" fill="white" stroke="#263238" stroke-linecap="round" stroke-linejoin="round"/>
<path d="M254.084 230.179V224.706H25.9081V230.179H254.084Z" fill="white" stroke="#263238" stroke-linecap="round" stroke-linejoin="round"/>
<path d="M254.084 272.863V267.39H25.9081V272.863H254.084Z" fill="white" stroke="#263238" stroke-linecap="round" stroke-linejoin="round"/>
<path d="M254.092 315.086V309.612H25.9157V315.086H254.092Z" fill="white" stroke="#263238" stroke-linecap="round" stroke-linejoin="round"/>
<path d="M27.0043 107.065H21.5309V328.127H27.0043V107.065Z" fill="white" stroke="#263238" stroke-linecap="round" stroke-linejoin="round"/>
<path d="M141.916 107.065H136.443V328.127H141.916V107.065Z" fill="white" stroke="#263238" stroke-linecap="round" stroke-linejoin="round"/>
<path d="M256.828 107.065H251.355V328.127H256.828V107.065Z" fill="white" stroke="#263238" stroke-linecap="round" stroke-linejoin="round"/>
<path d="M259.013 84.0823H16.0574V107.609H259.013V84.0823Z" fill="#92E3A9" stroke="#263238" stroke-linecap="round" stroke-linejoin="round"/>
<path d="M187.881 84.0823H87.197V107.609H187.881V84.0823Z" fill="white" stroke="#263238" stroke-linecap="round" stroke-linejoin="round"/>
<path d="M58.5522 93.0937H53.4643V87.9983H48.2177V93.0937H43.1222V98.3404H48.2177V103.428H53.4643V98.3404H58.5522V93.0937Z" fill="white"/>
<path d="M230.451 93.0937H225.364V87.9983H220.117V93.0937H215.022V98.3404H220.117V103.428H225.364V98.3404H230.451V93.0937Z" fill="white"/>
<path d="M102.952 87.696C105.553 87.696 106.664 89.208 106.664 91.7406V93.744C106.664 96.3674 105.439 97.7357 102.808 97.7357H101.183V104.268H99.3384V87.696H102.952ZM102.816 96.065C104.192 96.065 104.85 95.4299 104.85 93.8423V91.6424C104.85 90.1304 104.305 89.3744 102.96 89.3744H101.191V96.065H102.816Z" fill="#92E3A9"/>
<path d="M110.028 96.768V104.222H108.184V87.696H110.028V95.1426H114.096V87.696H115.94V104.252H114.096V96.768H110.028Z" fill="#92E3A9"/>
<path d="M119.697 100.918L119.062 104.252H117.361L120.529 87.696H123.228L126.396 104.252H124.551L123.916 100.918H119.697ZM119.939 99.3309H123.629L121.754 89.775L119.939 99.3309Z" fill="#92E3A9"/>
<path d="M131.499 87.696C134.107 87.696 135.188 89.019 135.188 91.476V92.8293C135.188 94.6512 134.553 95.7852 133.132 96.2313C134.644 96.6849 135.218 97.9096 135.218 99.6862V102.264C135.164 102.943 135.276 103.626 135.543 104.252H133.676C133.419 103.615 133.315 102.926 133.374 102.241V99.6408C133.374 97.7735 132.497 97.1763 130.962 97.1763H129.654V104.252H127.817V87.696H131.499ZM131.03 95.498C132.497 95.498 133.374 95.0292 133.374 93.23V91.6424C133.374 90.1304 132.829 89.3744 131.453 89.3744H129.654V95.498H131.03Z" fill="#92E3A9"/>
<path d="M143.232 104.23H141.463L138.718 91.0527V104.252H137.108V87.696H139.686L142.408 100.918L145.031 87.696H147.609V104.252H145.863V90.9393L143.232 104.23Z" fill="#92E3A9"/>
<path d="M151.374 100.918L150.731 104.252H149.03L152.198 87.696H154.874L158.042 104.252H156.197L155.555 100.918H151.374ZM151.608 99.3309H155.298L153.468 89.775L151.608 99.3309Z" fill="#92E3A9"/>
<path d="M166.789 91.6951V93.2071H165.042V91.6195C165.042 90.1075 164.453 89.2305 163.099 89.2305C161.746 89.2305 161.164 90.1302 161.164 91.6195V100.374C161.164 101.886 161.776 102.755 163.099 102.755C164.422 102.755 165.042 101.863 165.042 100.374V98.2194H166.789V100.276C166.789 102.786 165.609 104.441 163.054 104.441C160.499 104.441 159.342 102.786 159.342 100.276V91.6951C159.342 89.1852 160.521 87.5295 163.054 87.5295C165.587 87.5295 166.789 89.2079 166.789 91.6951Z" fill="#92E3A9"/>
<path d="M171.143 98.28L167.643 87.696H169.563L172.141 95.8306L174.742 87.696H176.488L172.965 98.28V104.222H171.143V98.28Z" fill="#92E3A9"/>
<path d="M350.996 104.577H270.882V224.086H350.996V104.577Z" stroke="#263238" stroke-linecap="round" stroke-linejoin="round"/>
<path d="M322.321 134.961L294.961 151.888C293.568 152.751 292.018 153.33 290.401 153.594C288.783 153.858 287.13 153.8 285.535 153.424C283.94 153.049 282.434 152.363 281.104 151.405C279.775 150.447 278.647 149.237 277.785 147.843C276.045 145.03 275.493 141.641 276.252 138.421C277.01 135.202 279.016 132.415 281.829 130.674L309.204 113.74C312.018 112 315.409 111.448 318.629 112.207C321.85 112.965 324.638 114.971 326.38 117.785C327.242 119.179 327.821 120.729 328.084 122.347C328.346 123.965 328.287 125.619 327.91 127.214C327.533 128.809 326.845 130.315 325.886 131.644C324.927 132.973 323.716 134.1 322.321 134.961Z" stroke="#263238" stroke-linecap="round" stroke-linejoin="round"/>
<path d="M309.204 113.74L295.248 122.381L308.38 143.594L322.336 134.961C323.729 134.099 324.939 132.97 325.896 131.641C326.854 130.311 327.54 128.805 327.915 127.21C328.291 125.615 328.349 123.962 328.085 122.345C327.822 120.728 327.243 119.178 326.38 117.785C325.518 116.391 324.39 115.181 323.06 114.224C321.73 113.267 320.225 112.581 318.63 112.205C317.035 111.829 315.382 111.772 313.764 112.035C312.147 112.298 310.597 112.878 309.204 113.74Z" stroke="#263238" stroke-linecap="round" stroke-linejoin="round"/>
<path d="M330.251 187.314L299.86 176.73C298.312 176.193 296.885 175.356 295.661 174.268C294.437 173.179 293.439 171.86 292.725 170.386C292.011 168.911 291.595 167.31 291.5 165.675C291.405 164.039 291.633 162.401 292.171 160.854C292.708 159.306 293.545 157.879 294.633 156.655C295.722 155.431 297.041 154.433 298.516 153.719C299.99 153.005 301.591 152.589 303.226 152.494C304.862 152.399 306.5 152.627 308.047 153.165L338.439 163.749C341.563 164.835 344.129 167.118 345.571 170.095C347.012 173.072 347.213 176.501 346.127 179.625C345.041 182.75 342.759 185.316 339.781 186.757C336.804 188.199 333.376 188.399 330.251 187.314Z" stroke="#263238" stroke-linecap="round" stroke-linejoin="round"/>
<path d="M338.439 163.742L322.933 158.352L314.745 181.924L330.251 187.314C333.377 188.4 336.806 188.199 339.784 186.757C342.762 185.314 345.045 182.747 346.131 179.622C347.217 176.496 347.016 173.067 345.573 170.089C344.131 167.111 341.564 164.828 338.439 163.742Z" stroke="#263238" stroke-linecap="round" stroke-linejoin="round"/>
<path d="M334.659 197.823H338.522" stroke="#263238" stroke-linecap="round" stroke-linejoin="round"/>
<path d="M282.706 197.823H330.395" stroke="#263238" stroke-linecap="round" stroke-linejoin="round"/>
<path d="M282.706 206.358H338.522" stroke="#263238" stroke-linecap="round" stroke-linejoin="round"/>
<path d="M292.247 214.9H338.522" stroke="#263238" stroke-linecap="round" stroke-linejoin="round"/>
<path d="M282.706 214.9H286.645" stroke="#263238" stroke-linecap="round" stroke-linejoin="round"/>
<path d="M317.051 186.664H320.793" stroke="#263238" stroke-linecap="round" stroke-linejoin="round"/>
<path d="M280.733 157.77V186.664H312.251" stroke="#263238" stroke-linecap="round" stroke-linejoin="round"/>
<path d="M333.593 114.715H329.986" stroke="#263238" stroke-linecap="round" stroke-linejoin="round"/>
<path d="M342.46 161.051V114.715H337.856" stroke="#263238" stroke-linecap="round" stroke-linejoin="round"/>
<path d="M301.092 114.428H280.075V128.217" stroke="#263238" stroke-linecap="round" stroke-linejoin="round"/>
<path d="M345.946 304.275C345.946 304.275 342.566 299.981 342.566 297.373C342.566 294.764 345.174 298.605 345.174 298.605C345.174 298.605 339.656 288.482 340.117 284.339C340.578 280.196 344.713 291.551 344.713 291.551C344.713 291.551 343.337 268.244 345.636 269.007C347.934 269.771 350.852 291.687 350.852 293.086C350.852 294.485 352.84 283.424 354.375 286.645C355.91 289.865 355.887 297.531 355.887 297.531C355.887 297.531 357.883 285.874 359.418 289.865C360.952 293.857 357.588 304.426 357.588 304.426" fill="#92E3A9"/>
<path d="M361.436 307.821H342.77V323.311H361.436V307.821Z" stroke="#263238" stroke-linecap="round" stroke-linejoin="round"/>
<path d="M361.587 313.188V304.381H342.687V314.496C342.687 315.097 342.926 315.674 343.352 316.1C343.777 316.525 344.354 316.764 344.955 316.764H345.076C345.678 316.764 346.255 316.525 346.68 316.1C347.105 315.674 347.344 315.097 347.344 314.496V313.218H347.465V314.496C347.465 315.097 347.704 315.674 348.129 316.1C348.555 316.525 349.132 316.764 349.733 316.764H349.854C350.456 316.764 351.033 316.525 351.458 316.1C351.883 315.674 352.122 315.097 352.122 314.496V313.218H352.243V314.496C352.243 315.097 352.482 315.674 352.907 316.1C353.333 316.525 353.91 316.764 354.511 316.764H354.624C355.226 316.764 355.803 316.525 356.228 316.1C356.654 315.674 356.892 315.097 356.892 314.496V313.218H357.013V314.496C357.013 315.097 357.252 315.674 357.678 316.1C358.103 316.525 358.68 316.764 359.281 316.764H359.395C359.996 316.764 360.573 316.525 360.999 316.1C361.424 315.674 361.663 315.097 361.663 314.496V313.218L361.587 313.188Z" fill="white" stroke="#263238" stroke-linecap="round" stroke-linejoin="round"/>
<path d="M134.727 311.752V305.243H120.499V311.51L134.727 311.752Z" fill="#BFBFBF" stroke="#263238" stroke-linecap="round" stroke-linejoin="round"/>
<path d="M120.499 305.243L119.055 301.863C121.876 301.606 124.719 301.769 127.492 302.347C130.067 302.839 132.523 303.822 134.727 305.243H120.499Z" fill="white" stroke="#263238" stroke-linecap="round" stroke-linejoin="round"/>
<path d="M119.055 301.863C119.055 301.863 114.232 302.105 111.578 305.485C109.927 307.742 108.925 310.409 108.683 313.196L120.499 311.51V305.243L119.055 301.863Z" fill="white" stroke="#263238" stroke-linecap="round" stroke-linejoin="round"/>
<path d="M116.643 307.412V312.228L113.022 312.47C112.924 311.138 113.185 309.804 113.778 308.607C114.022 308.088 114.451 307.678 114.981 307.458C115.51 307.237 116.103 307.221 116.643 307.412Z" fill="white" stroke="#263238" stroke-linecap="round" stroke-linejoin="round"/>
<path d="M120.015 325.98H112.546L107.722 317.535L117.127 315.131L120.015 325.98Z" fill="white" stroke="#263238" stroke-linecap="round" stroke-linejoin="round"/>
<path d="M152.568 316.817L147.745 325.98H120.015L115.917 318.019L152.568 316.817Z" fill="#A6A6A6" stroke="#263238" stroke-linecap="round" stroke-linejoin="round"/>
<path d="M115.925 318.027H154.02V311.276H115.925V318.027Z" fill="#BFBFBF" stroke="#263238" stroke-linecap="round" stroke-linejoin="round"/>
<path d="M115.917 311.268L106.997 314.405V318.503L115.917 318.019V311.268Z" fill="white" stroke="#263238" stroke-linecap="round" stroke-linejoin="round"/>
<path d="M214.795 321.58L263.625 320.839L268.629 320.022H319.554L317.883 323.455H213.54L214.795 321.58Z" fill="#263238" stroke="#263238" stroke-linecap="round" stroke-linejoin="round"/>
<path d="M330.213 308.803H267.601L276.378 245.821H338.983L330.213 308.803Z" fill="#263238" stroke="#263238" stroke-linecap="round" stroke-linejoin="round"/>
<path d="M333.01 308.803H270.399L279.176 245.821H341.788L333.01 308.803Z" fill="#3D3D3D" stroke="#263238" stroke-linecap="round" stroke-linejoin="round"/>
<path d="M314.254 289.17H294.621L297.924 265.462H317.558L314.254 289.17Z" fill="#3D3D3D" stroke="#263238" stroke-linecap="round" stroke-linejoin="round"/>
<path d="M297.924 265.462L279.176 245.821H341.788L317.558 265.462H297.924Z" fill="#595959" stroke="#263238" stroke-linecap="round" stroke-linejoin="round"/>
<path d="M294.621 289.17L271.79 308.599L333.01 308.803L314.254 289.17H294.621Z" fill="#2E2E2E" stroke="#263238" stroke-linecap="round" stroke-linejoin="round"/>
<path d="M308.592 293.487C315.08 293.487 320.34 288.227 320.34 281.739C320.34 275.25 315.08 269.99 308.592 269.99C302.103 269.99 296.843 275.25 296.843 281.739C296.843 288.227 302.103 293.487 308.592 293.487Z" fill="#263238" stroke="#263238" stroke-linecap="round" stroke-linejoin="round"/>
<path d="M309.665 275.781H310.421C312.454 275.781 314.404 276.589 315.842 278.027C317.279 279.464 318.087 281.414 318.087 283.447V325.027H301.999V283.447C301.999 281.414 302.807 279.464 304.245 278.027C305.682 276.589 307.632 275.781 309.665 275.781Z" fill="#595959" stroke="#263238" stroke-linecap="round" stroke-linejoin="round"/>
<path d="M318.087 325.019V283.825C317.873 282.033 316.957 280.398 315.538 279.282C314.12 278.165 312.316 277.658 310.523 277.872C308.731 278.085 307.096 279.002 305.98 280.42C304.863 281.839 304.356 283.643 304.57 285.435V325.019H318.087Z" fill="#595959" stroke="#263238" stroke-linecap="round" stroke-linejoin="round"/>
<path d="M312.546 304.419H312.357C311.254 304.419 310.361 305.312 310.361 306.415V313.045C310.361 314.147 311.254 315.04 312.357 315.04H312.546C313.648 315.04 314.541 314.147 314.541 313.045V306.415C314.541 305.312 313.648 304.419 312.546 304.419Z" fill="#263238" stroke="#263238" stroke-linecap="round" stroke-linejoin="round"/>
<path d="M318.405 321.156H288.8V325.02H318.405V321.156Z" fill="#595959" stroke="#263238" stroke-linecap="round" stroke-linejoin="round"/>
<path d="M369.193 323.409H15.0066V330.168H369.193V323.409Z" fill="#263238" stroke="#263238" stroke-linecap="round" stroke-linejoin="round"/>
</svg>
