<svg width="378" height="378" viewBox="0 0 378 378" fill="none" xmlns="http://www.w3.org/2000/svg">
<path d="M333.706 320.151C333.706 322.51 269.446 324.43 190.202 324.43C110.958 324.43 46.6906 322.51 46.6906 320.151C46.6906 317.792 110.951 315.872 190.202 315.872C269.454 315.872 333.706 317.792 333.706 320.151Z" fill="#92E3A9"/>
<path opacity="0.3" d="M333.706 320.151C333.706 322.51 269.446 324.43 190.202 324.43C110.958 324.43 46.6906 322.51 46.6906 320.151C46.6906 317.792 110.951 315.872 190.202 315.872C269.454 315.872 333.706 317.792 333.706 320.151Z" fill="white"/>
<path d="M306.233 237.77C306.233 237.807 308.176 235.766 308.282 235.623C309.514 233.974 310.928 230.058 309.59 228.176C309.359 227.87 309.067 227.617 308.732 227.431C308.396 227.246 308.026 227.133 307.645 227.101C307.263 227.068 306.879 227.116 306.517 227.241C306.156 227.366 305.824 227.566 305.545 227.828C304.32 228.902 304.033 230.89 304.139 232.425C304.267 234.224 306.233 237.762 306.233 237.77Z" fill="#92E3A9"/>
<path d="M323.893 230.739C322.003 229.416 318.102 230.86 316.462 232.1C316.318 232.213 314.292 234.148 314.33 234.164H314.375C313.755 234.39 313.097 234.632 312.379 234.92C311.064 235.449 309.582 236.069 308.01 236.84C306.312 237.665 304.661 238.584 303.065 239.592C301.277 240.715 299.592 241.995 298.03 243.417C298.011 243.433 297.993 243.45 297.977 243.47C298.31 242.888 299.195 241.202 299.248 241.081C300.004 239.161 300.329 235.033 298.544 233.559C298.239 233.326 297.888 233.16 297.515 233.072C297.141 232.983 296.754 232.974 296.376 233.046C295.999 233.117 295.641 233.267 295.326 233.485C295.01 233.704 294.744 233.987 294.545 234.315C293.653 235.676 293.895 237.664 294.409 239.115C294.984 240.756 297.592 243.462 297.804 243.651C296.247 245.137 294.792 246.725 293.449 248.407C292.693 249.382 291.899 250.387 291.181 251.431C291.453 250.916 291.695 250.448 291.718 250.38C292.474 248.467 292.799 244.332 291.015 242.858C290.71 242.625 290.36 242.459 289.987 242.371C289.614 242.282 289.227 242.274 288.85 242.345C288.474 242.416 288.116 242.566 287.801 242.785C287.487 243.003 287.221 243.286 287.023 243.614C286.123 244.967 286.373 246.963 286.879 248.407C287.386 249.851 289.578 252.239 290.16 252.852L289.276 254.016C287.915 255.914 286.569 257.796 285.186 259.626C284.702 260.268 284.203 260.888 283.674 261.5C283.916 261.039 284.12 260.654 284.143 260.593C284.899 258.673 285.224 254.545 283.44 253.033C283.135 252.799 282.784 252.632 282.41 252.543C282.037 252.454 281.648 252.445 281.271 252.516C280.893 252.588 280.535 252.738 280.22 252.957C279.904 253.177 279.639 253.46 279.44 253.789C278.541 255.15 278.79 257.138 279.304 258.59C279.818 260.041 281.784 262.188 282.472 262.922C281.943 263.542 281.413 264.154 280.869 264.729C280.491 265.114 280.159 265.485 279.75 265.87L278.594 266.959C277.838 267.624 277.082 268.32 276.288 268.955C275.759 269.401 275.252 269.809 274.776 270.225C275.26 269.597 276.197 268.335 276.288 268.221C277.139 266.622 277.566 264.831 277.528 263.02C277.628 262.846 277.714 262.664 277.785 262.476C277.926 262.119 277.991 261.737 277.975 261.354C277.959 260.971 277.863 260.595 277.692 260.252C277.522 259.908 277.281 259.604 276.986 259.359C276.691 259.115 276.347 258.935 275.978 258.832C273.71 258.28 270.61 261.024 269.529 262.778C269.469 262.884 268.894 264.078 268.554 264.842C268.682 264.366 268.826 263.897 268.955 263.406C269.227 262.43 269.469 261.448 269.711 260.382C269.816 259.868 269.93 259.346 270.043 258.824C270.157 258.303 270.225 257.743 270.323 257.199C270.512 255.929 270.648 254.636 270.761 253.328C271.616 253.562 274.662 254.356 276.19 254.084C277.717 253.812 279.584 253.132 280.355 251.703C280.55 251.373 280.674 251.005 280.717 250.624C280.76 250.243 280.722 249.857 280.606 249.491C280.49 249.126 280.297 248.789 280.042 248.503C279.786 248.217 279.473 247.988 279.123 247.832C276.991 246.94 273.491 249.185 272.152 250.75C272.069 250.848 271.238 252.081 270.792 252.769C270.852 252.013 270.913 251.196 270.95 250.395C271.041 248.127 271.071 245.761 271.109 243.432C271.109 242.721 271.109 242.011 271.155 241.3C271.457 241.383 275.063 242.404 276.772 242.139C278.284 241.913 280.166 241.194 280.945 239.758C281.137 239.427 281.258 239.059 281.3 238.678C281.341 238.297 281.302 237.912 281.186 237.547C281.069 237.182 280.876 236.846 280.621 236.56C280.366 236.274 280.054 236.045 279.705 235.887C277.581 235.003 274.073 237.248 272.735 238.813C272.636 238.926 271.442 240.703 271.155 241.172C271.192 239.607 271.245 238.042 271.359 236.507C271.505 234.433 271.782 232.37 272.19 230.331C272.334 230.331 276.091 231.449 277.845 231.177C279.357 230.951 281.232 230.232 282.011 228.796C282.204 228.465 282.325 228.098 282.367 227.717C282.409 227.337 282.371 226.952 282.255 226.587C282.138 226.222 281.947 225.886 281.693 225.599C281.438 225.313 281.127 225.083 280.778 224.925C278.647 224.041 275.139 226.278 273.808 227.851C273.717 227.949 272.803 229.302 272.387 229.953L272.266 229.907C272.733 227.865 273.383 225.868 274.209 223.942C274.647 222.876 275.124 221.886 275.615 220.918C276.295 221.191 279.395 222.43 281.013 222.34C282.631 222.249 284.49 221.765 285.42 220.427C285.649 220.119 285.81 219.767 285.893 219.393C285.977 219.02 285.981 218.632 285.905 218.257C285.83 217.881 285.676 217.526 285.455 217.213C285.233 216.901 284.948 216.638 284.619 216.443C282.6 215.332 278.866 217.199 277.369 218.582C277.286 218.658 276.545 219.527 276.008 220.17C276.235 219.747 276.462 219.301 276.688 218.892C277.535 217.38 278.397 216.02 279.176 214.833C279.622 214.167 280.038 213.57 280.438 213.011C281.24 212.935 284.49 212.565 285.859 211.786C287.227 211.007 288.679 209.677 288.883 208.059C288.945 207.681 288.927 207.294 288.829 206.923C288.731 206.553 288.557 206.207 288.316 205.909C288.076 205.61 287.775 205.366 287.433 205.192C287.092 205.018 286.718 204.918 286.335 204.899C284.029 204.838 281.572 208.187 280.892 210.13C280.831 210.304 280.211 213.033 280.249 213.026H280.302C279.909 213.53 279.493 214.104 279.055 214.749C278.246 215.921 277.346 217.252 276.469 218.764C275.504 220.386 274.633 222.062 273.861 223.784C272.99 225.71 272.29 227.708 271.767 229.756C271.771 229.781 271.771 229.807 271.767 229.832C271.767 229.159 271.54 227.276 271.51 227.133C271.087 225.122 269.068 221.478 266.777 221.251C266.395 221.222 266.011 221.274 265.65 221.404C265.289 221.533 264.96 221.737 264.683 222.002C264.406 222.268 264.188 222.588 264.044 222.944C263.899 223.299 263.831 223.68 263.844 224.063C263.844 225.689 265.152 227.216 266.377 228.138C267.76 229.189 271.427 230.013 271.722 230.074C271.247 232.174 270.911 234.303 270.716 236.447C270.603 237.694 270.52 238.949 270.451 240.227C270.399 239.645 270.346 239.123 270.331 239.055C269.9 237.036 267.881 233.4 265.59 233.166C265.208 233.137 264.824 233.189 264.463 233.318C264.102 233.448 263.773 233.652 263.496 233.917C263.219 234.182 263.002 234.503 262.857 234.858C262.712 235.213 262.644 235.595 262.657 235.978C262.657 237.603 263.965 239.13 265.19 240.06C266.414 240.99 269.552 241.761 270.376 241.958C270.376 242.442 270.331 242.926 270.315 243.409C270.225 245.738 270.149 248.066 270.005 250.342C269.953 251.143 269.869 251.937 269.794 252.723C269.748 252.209 269.695 251.771 269.688 251.71C269.257 249.692 267.238 246.055 264.948 245.821C264.565 245.792 264.181 245.844 263.821 245.974C263.46 246.103 263.13 246.307 262.853 246.572C262.577 246.838 262.359 247.158 262.214 247.514C262.07 247.869 262.002 248.25 262.015 248.633C262.015 250.266 263.322 251.786 264.547 252.716C265.772 253.646 268.607 254.349 269.582 254.576C269.484 255.384 269.378 256.193 269.242 256.964C269.136 257.494 269.076 258.015 268.939 258.537L268.577 260.049C268.304 261.024 268.04 262.037 267.753 262.982C267.556 263.64 267.359 264.267 267.163 264.902C267.223 264.101 267.307 262.536 267.299 262.4C267.186 260.351 265.742 256.443 263.519 255.868C263.146 255.783 262.759 255.777 262.383 255.851C262.008 255.925 261.652 256.077 261.339 256.297C261.026 256.517 260.763 256.801 260.567 257.129C260.37 257.458 260.246 257.824 260.2 258.204C259.951 259.815 261.009 261.516 262.083 262.619C263.156 263.723 266.619 265.167 267.042 265.333C266.709 266.377 266.384 267.382 266.059 268.357C264.933 271.646 263.874 274.345 263.111 276.22C263.111 276.288 263.058 276.348 263.028 276.409L264.403 277.165C264.449 277.044 264.502 276.923 264.547 276.794C265.303 274.882 266.293 272.13 267.352 268.781C267.692 267.722 268.032 266.588 268.372 265.417C269.526 265.561 270.687 265.637 271.85 265.643C272.266 267.329 274.194 270.096 274.443 270.452C273.596 271.139 272.765 271.805 271.971 272.417C269.219 274.541 266.845 276.197 265.167 277.346L264.97 277.482L266.482 278.314C268.115 277.142 270.262 275.517 272.81 273.491C273.672 272.795 274.587 272.032 275.509 271.223C275.849 271.51 278.609 273.854 280.242 274.322C281.716 274.746 283.719 274.882 285.02 273.906C285.334 273.687 285.598 273.405 285.796 273.077C285.994 272.749 286.12 272.383 286.167 272.003C286.214 271.623 286.181 271.237 286.069 270.871C285.957 270.505 285.77 270.166 285.519 269.877C283.961 268.176 279.841 268.743 277.959 269.605C277.853 269.658 276.719 270.361 276.008 270.784C276.386 270.459 276.764 270.149 277.135 269.809C277.891 269.151 278.647 268.463 279.448 267.722L280.582 266.611C280.967 266.241 281.338 265.81 281.716 265.409C282.578 264.456 283.402 263.451 284.211 262.423C284.8 263.088 286.91 265.447 288.308 266.082C289.707 266.717 291.665 267.155 293.101 266.392C293.444 266.222 293.748 265.982 293.992 265.688C294.237 265.393 294.417 265.051 294.521 264.683C294.625 264.314 294.651 263.928 294.596 263.549C294.542 263.171 294.409 262.807 294.205 262.483C292.92 260.571 288.762 260.503 286.781 261.07C286.653 261.107 285.269 261.674 284.513 261.999C284.989 261.38 285.481 260.76 285.942 260.109C287.295 258.242 288.603 256.329 289.918 254.394L291.136 252.64C291.34 252.875 293.789 255.717 295.362 256.42C296.753 257.063 298.711 257.501 300.147 256.73C300.492 256.562 300.797 256.323 301.043 256.029C301.289 255.735 301.47 255.392 301.574 255.023C301.679 254.654 301.704 254.267 301.648 253.888C301.592 253.508 301.457 253.145 301.251 252.822C299.966 250.909 295.808 250.841 293.827 251.415C293.683 251.453 291.703 252.277 291.211 252.512C292.103 251.226 293.011 249.949 293.956 248.732C295.215 247.077 296.584 245.509 298.053 244.037C298.151 244.15 300.691 247.121 302.294 247.862C303.693 248.512 305.651 248.943 307.087 248.18C307.431 248.011 307.736 247.772 307.981 247.477C308.226 247.183 308.407 246.84 308.511 246.472C308.615 246.103 308.64 245.717 308.585 245.337C308.53 244.958 308.396 244.595 308.191 244.271C306.906 242.351 302.748 242.291 300.767 242.858C300.639 242.895 299.134 243.523 298.423 243.833L298.348 243.719C299.865 242.279 301.507 240.976 303.254 239.826C304.214 239.176 305.159 238.609 306.097 238.087C306.513 238.684 308.44 241.414 309.816 242.245C311.192 243.077 313.029 243.689 314.541 243.084C314.903 242.953 315.232 242.747 315.508 242.48C315.784 242.212 316.001 241.89 316.144 241.533C316.286 241.176 316.352 240.793 316.336 240.409C316.321 240.025 316.224 239.648 316.053 239.304C314.987 237.256 310.86 236.741 308.834 237.089C308.72 237.089 307.616 237.422 306.823 237.664L308.093 236.968C309.643 236.167 311.117 235.517 312.409 234.957C313.165 234.647 313.831 234.375 314.466 234.133C315.184 234.511 318.087 236.001 319.66 236.099C321.232 236.197 323.182 235.895 324.241 234.662C324.483 234.385 324.666 234.062 324.78 233.712C324.894 233.362 324.936 232.993 324.904 232.627C324.871 232.26 324.765 231.904 324.591 231.579C324.418 231.255 324.18 230.969 323.893 230.739Z" fill="#92E3A9"/>
<path d="M270.792 217.244C271.888 218.681 275.479 220.548 275.486 220.548C275.494 220.548 276 217.811 276.008 217.63C276.129 215.573 275.146 211.536 272.984 210.705C272.623 210.577 272.239 210.526 271.857 210.556C271.474 210.586 271.103 210.697 270.766 210.88C270.43 211.063 270.135 211.315 269.903 211.62C269.67 211.925 269.504 212.275 269.416 212.648C268.992 214.213 269.892 216.027 270.792 217.244Z" fill="#92E3A9"/>
<g opacity="0.5">
<path d="M306.233 237.77C306.233 237.807 308.176 235.766 308.282 235.623C309.514 233.974 310.928 230.058 309.59 228.176C309.359 227.87 309.067 227.617 308.732 227.431C308.397 227.246 308.026 227.133 307.645 227.101C307.263 227.068 306.879 227.116 306.518 227.241C306.156 227.366 305.824 227.566 305.545 227.828C304.32 228.902 304.033 230.89 304.139 232.425C304.267 234.224 306.233 237.762 306.233 237.77Z" fill="white"/>
<path d="M323.893 230.739C322.003 229.416 318.102 230.86 316.462 232.1C316.318 232.213 314.292 234.148 314.33 234.164H314.375C313.755 234.39 313.097 234.632 312.379 234.92C311.064 235.449 309.582 236.069 308.01 236.84C306.312 237.665 304.661 238.584 303.065 239.592C301.277 240.715 299.592 241.995 298.03 243.417C298.011 243.433 297.993 243.45 297.977 243.47C298.31 242.888 299.195 241.202 299.248 241.081C300.004 239.161 300.329 235.033 298.544 233.559C298.239 233.326 297.888 233.16 297.515 233.072C297.141 232.983 296.754 232.974 296.376 233.046C295.999 233.117 295.641 233.267 295.326 233.485C295.01 233.704 294.744 233.987 294.545 234.315C293.653 235.676 293.895 237.664 294.409 239.115C294.984 240.756 297.592 243.462 297.804 243.651C296.247 245.137 294.792 246.725 293.449 248.407C292.693 249.382 291.899 250.387 291.181 251.431C291.453 250.916 291.695 250.448 291.718 250.38C292.474 248.467 292.799 244.332 291.015 242.858C290.71 242.625 290.36 242.459 289.987 242.371C289.614 242.282 289.227 242.274 288.85 242.345C288.474 242.416 288.116 242.566 287.801 242.785C287.487 243.003 287.221 243.286 287.023 243.614C286.123 244.967 286.373 246.963 286.879 248.407C287.386 249.851 289.578 252.239 290.16 252.852L289.276 254.016C287.915 255.914 286.569 257.796 285.186 259.626C284.702 260.268 284.203 260.888 283.674 261.5C283.916 261.039 284.12 260.654 284.143 260.593C284.899 258.673 285.224 254.545 283.44 253.033C283.135 252.799 282.784 252.632 282.41 252.543C282.037 252.454 281.648 252.445 281.271 252.516C280.893 252.588 280.535 252.738 280.22 252.957C279.904 253.177 279.639 253.46 279.44 253.789C278.541 255.15 278.79 257.138 279.304 258.59C279.818 260.041 281.784 262.188 282.472 262.922C281.943 263.542 281.413 264.154 280.869 264.729C280.491 265.114 280.159 265.485 279.75 265.87L278.594 266.959C277.838 267.624 277.082 268.32 276.288 268.955C275.759 269.401 275.252 269.809 274.776 270.225C275.26 269.597 276.197 268.335 276.288 268.221C277.139 266.622 277.566 264.831 277.528 263.02C277.628 262.846 277.714 262.664 277.785 262.476C277.926 262.119 277.991 261.737 277.975 261.354C277.959 260.971 277.863 260.595 277.692 260.252C277.522 259.908 277.281 259.604 276.986 259.359C276.691 259.115 276.347 258.935 275.978 258.832C273.71 258.28 270.61 261.024 269.529 262.778C269.469 262.884 268.894 264.078 268.554 264.842C268.682 264.366 268.826 263.897 268.955 263.406C269.227 262.43 269.469 261.448 269.711 260.382C269.816 259.868 269.93 259.346 270.043 258.824C270.157 258.303 270.225 257.743 270.323 257.199C270.512 255.929 270.648 254.636 270.761 253.328C271.616 253.562 274.662 254.356 276.19 254.084C277.717 253.812 279.584 253.132 280.355 251.703C280.55 251.373 280.674 251.005 280.717 250.624C280.76 250.243 280.722 249.857 280.606 249.491C280.49 249.126 280.297 248.789 280.042 248.503C279.786 248.217 279.473 247.988 279.123 247.832C276.991 246.94 273.491 249.185 272.152 250.75C272.069 250.848 271.238 252.081 270.792 252.769C270.852 252.013 270.913 251.196 270.95 250.395C271.041 248.127 271.071 245.761 271.109 243.432C271.109 242.721 271.109 242.011 271.155 241.3C271.457 241.383 275.063 242.404 276.772 242.139C278.284 241.913 280.166 241.194 280.945 239.758C281.137 239.427 281.258 239.059 281.3 238.678C281.341 238.297 281.302 237.912 281.186 237.547C281.069 237.182 280.876 236.846 280.621 236.56C280.366 236.274 280.054 236.045 279.705 235.887C277.581 235.003 274.073 237.248 272.735 238.813C272.636 238.926 271.442 240.703 271.155 241.172C271.192 239.607 271.245 238.042 271.359 236.507C271.505 234.433 271.782 232.37 272.19 230.331C272.334 230.331 276.091 231.449 277.845 231.177C279.357 230.951 281.232 230.232 282.011 228.796C282.204 228.465 282.325 228.098 282.367 227.717C282.409 227.337 282.371 226.952 282.255 226.587C282.138 226.222 281.947 225.886 281.693 225.599C281.438 225.313 281.127 225.083 280.778 224.925C278.647 224.041 275.139 226.278 273.808 227.851C273.717 227.949 272.803 229.302 272.387 229.953L272.266 229.907C272.733 227.865 273.383 225.868 274.209 223.942C274.647 222.876 275.124 221.886 275.615 220.918C276.295 221.191 279.395 222.43 281.013 222.34C282.631 222.249 284.49 221.765 285.42 220.427C285.649 220.119 285.81 219.767 285.893 219.393C285.977 219.02 285.981 218.632 285.905 218.257C285.83 217.881 285.676 217.526 285.455 217.213C285.233 216.901 284.948 216.638 284.619 216.443C282.6 215.332 278.866 217.199 277.369 218.582C277.286 218.658 276.545 219.527 276.008 220.17C276.235 219.747 276.462 219.301 276.688 218.892C277.535 217.38 278.397 216.02 279.176 214.833C279.622 214.167 280.038 213.57 280.438 213.011C281.24 212.935 284.49 212.565 285.859 211.786C287.227 211.007 288.679 209.677 288.883 208.059C288.945 207.681 288.927 207.294 288.829 206.923C288.731 206.553 288.557 206.207 288.316 205.909C288.076 205.61 287.775 205.366 287.433 205.192C287.092 205.018 286.718 204.918 286.335 204.899C284.029 204.838 281.572 208.187 280.892 210.13C280.831 210.304 280.211 213.033 280.249 213.026H280.302C279.909 213.53 279.493 214.104 279.055 214.749C278.246 215.921 277.346 217.252 276.469 218.764C275.504 220.386 274.633 222.062 273.861 223.784C272.99 225.71 272.29 227.708 271.767 229.756C271.771 229.781 271.771 229.807 271.767 229.832C271.767 229.159 271.54 227.276 271.51 227.133C271.087 225.122 269.068 221.478 266.777 221.251C266.395 221.222 266.011 221.274 265.65 221.404C265.289 221.533 264.96 221.737 264.683 222.002C264.406 222.268 264.188 222.588 264.044 222.944C263.899 223.299 263.831 223.68 263.844 224.063C263.844 225.689 265.152 227.216 266.377 228.138C267.76 229.189 271.427 230.013 271.722 230.074C271.247 232.174 270.911 234.303 270.716 236.447C270.603 237.694 270.52 238.949 270.451 240.227C270.399 239.645 270.346 239.123 270.331 239.055C269.9 237.036 267.881 233.4 265.59 233.166C265.208 233.137 264.824 233.189 264.463 233.318C264.102 233.448 263.773 233.652 263.496 233.917C263.219 234.182 263.002 234.503 262.857 234.858C262.712 235.213 262.644 235.595 262.657 235.978C262.657 237.603 263.965 239.13 265.19 240.06C266.414 240.99 269.552 241.761 270.376 241.958C270.376 242.442 270.331 242.926 270.315 243.409C270.225 245.738 270.149 248.066 270.005 250.342C269.953 251.143 269.869 251.937 269.794 252.723C269.748 252.209 269.695 251.771 269.688 251.71C269.257 249.692 267.238 246.055 264.948 245.821C264.565 245.792 264.181 245.844 263.821 245.974C263.46 246.103 263.13 246.307 262.853 246.572C262.577 246.838 262.359 247.158 262.214 247.514C262.07 247.869 262.002 248.25 262.015 248.633C262.015 250.266 263.322 251.786 264.547 252.716C265.772 253.646 268.607 254.349 269.582 254.576C269.484 255.384 269.378 256.193 269.242 256.964C269.136 257.494 269.076 258.015 268.939 258.537L268.577 260.049C268.304 261.024 268.04 262.037 267.753 262.982C267.556 263.64 267.359 264.267 267.163 264.902C267.223 264.101 267.307 262.536 267.299 262.4C267.186 260.351 265.742 256.443 263.519 255.868C263.146 255.783 262.759 255.777 262.383 255.851C262.008 255.925 261.652 256.077 261.339 256.297C261.026 256.517 260.763 256.801 260.567 257.129C260.37 257.458 260.246 257.824 260.2 258.204C259.951 259.815 261.009 261.516 262.083 262.619C263.156 263.723 266.619 265.167 267.042 265.333C266.709 266.377 266.384 267.382 266.059 268.357C264.933 271.646 263.874 274.345 263.111 276.22C263.111 276.288 263.058 276.348 263.028 276.409L264.403 277.165C264.449 277.044 264.502 276.923 264.547 276.794C265.303 274.882 266.293 272.13 267.352 268.781C267.692 267.722 268.032 266.588 268.372 265.417C269.526 265.561 270.687 265.637 271.85 265.643C272.266 267.329 274.194 270.096 274.443 270.452C273.596 271.139 272.765 271.805 271.971 272.417C269.219 274.541 266.845 276.197 265.167 277.346L264.97 277.482L266.482 278.314C268.115 277.142 270.262 275.517 272.81 273.491C273.672 272.795 274.587 272.032 275.509 271.223C275.849 271.51 278.609 273.854 280.242 274.322C281.716 274.746 283.719 274.882 285.02 273.906C285.334 273.687 285.598 273.405 285.796 273.077C285.994 272.749 286.12 272.383 286.167 272.003C286.214 271.623 286.181 271.237 286.069 270.871C285.957 270.505 285.77 270.166 285.519 269.877C283.961 268.176 279.841 268.743 277.959 269.605C277.853 269.658 276.719 270.361 276.008 270.784C276.386 270.459 276.764 270.149 277.135 269.809C277.891 269.151 278.647 268.463 279.448 267.722L280.582 266.611C280.967 266.241 281.338 265.81 281.716 265.409C282.578 264.456 283.402 263.451 284.211 262.423C284.8 263.088 286.91 265.447 288.308 266.082C289.707 266.717 291.665 267.155 293.101 266.392C293.444 266.222 293.748 265.982 293.992 265.688C294.237 265.393 294.417 265.051 294.521 264.683C294.625 264.314 294.651 263.928 294.596 263.549C294.542 263.171 294.409 262.807 294.205 262.483C292.92 260.571 288.762 260.503 286.781 261.07C286.653 261.107 285.269 261.674 284.513 261.999C284.989 261.38 285.481 260.76 285.942 260.109C287.295 258.242 288.603 256.329 289.918 254.394L291.136 252.64C291.34 252.875 293.789 255.717 295.362 256.42C296.753 257.063 298.711 257.501 300.147 256.73C300.492 256.562 300.797 256.323 301.043 256.029C301.289 255.735 301.47 255.392 301.574 255.023C301.679 254.654 301.704 254.267 301.648 253.888C301.592 253.508 301.457 253.145 301.251 252.822C299.966 250.909 295.808 250.841 293.827 251.415C293.683 251.453 291.703 252.277 291.211 252.512C292.103 251.226 293.011 249.949 293.956 248.732C295.215 247.077 296.584 245.509 298.053 244.037C298.151 244.15 300.691 247.121 302.294 247.862C303.693 248.512 305.651 248.943 307.087 248.18C307.431 248.011 307.736 247.772 307.981 247.477C308.226 247.183 308.407 246.84 308.511 246.472C308.615 246.103 308.64 245.717 308.585 245.337C308.53 244.958 308.396 244.595 308.191 244.271C306.906 242.351 302.748 242.291 300.767 242.858C300.639 242.895 299.134 243.523 298.423 243.833L298.348 243.719C299.865 242.279 301.507 240.976 303.254 239.826C304.214 239.176 305.159 238.609 306.097 238.087C306.513 238.684 308.44 241.414 309.816 242.245C311.192 243.077 313.029 243.689 314.541 243.084C314.903 242.953 315.232 242.747 315.508 242.48C315.784 242.212 316.001 241.89 316.144 241.533C316.286 241.176 316.352 240.793 316.336 240.409C316.321 240.025 316.224 239.648 316.053 239.304C314.987 237.256 310.86 236.741 308.834 237.089C308.72 237.089 307.616 237.422 306.823 237.664L308.093 236.968C309.643 236.167 311.117 235.517 312.409 234.957C313.165 234.647 313.831 234.375 314.466 234.133C315.184 234.511 318.087 236.001 319.66 236.099C321.232 236.197 323.182 235.895 324.241 234.662C324.483 234.385 324.666 234.062 324.78 233.712C324.894 233.362 324.936 232.993 324.904 232.627C324.871 232.26 324.765 231.904 324.591 231.579C324.418 231.255 324.18 230.969 323.893 230.739Z" fill="white"/>
<path d="M270.792 217.244C271.888 218.681 275.479 220.548 275.486 220.548C275.494 220.548 276 217.811 276.008 217.63C276.129 215.573 275.146 211.536 272.984 210.705C272.623 210.577 272.239 210.526 271.857 210.556C271.474 210.586 271.103 210.697 270.766 210.88C270.43 211.063 270.135 211.315 269.903 211.62C269.67 211.925 269.504 212.275 269.416 212.648C268.992 214.213 269.892 216.027 270.792 217.244Z" fill="white"/>
</g>
<path d="M123.228 179.021C123.273 179.021 122.638 175.853 122.57 175.664C121.814 173.396 119.093 169.457 116.432 169.465C115.99 169.479 115.555 169.585 115.157 169.778C114.759 169.971 114.406 170.245 114.121 170.583C113.836 170.921 113.625 171.315 113.502 171.74C113.379 172.164 113.347 172.61 113.408 173.048C113.604 174.916 115.282 176.511 116.802 177.426C118.571 178.507 123.228 179.021 123.228 179.021Z" fill="#92E3A9"/>
<path d="M128.376 157.694C125.866 158.594 124.596 163.236 124.702 165.609C124.702 165.813 125.178 169.011 125.224 168.989H125.277C125.073 169.745 124.869 170.501 124.657 171.37C124.279 172.965 123.901 174.772 123.553 176.768C123.194 178.918 122.957 181.086 122.842 183.262C122.71 185.696 122.793 188.138 123.092 190.557C123.096 190.588 123.096 190.618 123.092 190.648C122.767 189.937 121.784 187.995 121.686 187.851C120.385 185.863 116.696 182.786 114.126 183.496C113.703 183.627 113.313 183.845 112.98 184.136C112.647 184.427 112.379 184.785 112.193 185.186C112.007 185.587 111.908 186.023 111.901 186.465C111.894 186.907 111.979 187.346 112.153 187.753C112.833 189.499 114.874 190.595 116.583 191.079C118.511 191.631 122.805 190.981 123.145 190.928C123.508 193.385 124.036 195.814 124.725 198.201C125.118 199.592 125.556 200.983 126.018 202.374C125.715 201.769 125.436 201.232 125.39 201.164C124.082 199.176 120.401 196.099 117.83 196.809C117.407 196.938 117.016 197.155 116.683 197.445C116.349 197.735 116.081 198.092 115.895 198.493C115.708 198.894 115.609 199.33 115.602 199.772C115.596 200.214 115.683 200.652 115.857 201.058C116.537 202.812 118.579 203.908 120.287 204.392C121.996 204.876 125.685 204.392 126.66 204.264C126.842 204.793 127.016 205.33 127.197 205.859C128.074 208.399 128.966 210.939 129.76 213.419C130.04 214.303 130.281 215.188 130.516 216.065C130.244 215.528 130.017 215.082 129.972 215.022C128.671 213.033 124.982 209.956 122.412 210.667C121.989 210.796 121.598 211.012 121.264 211.303C120.931 211.593 120.662 211.95 120.476 212.351C120.29 212.752 120.19 213.187 120.184 213.629C120.177 214.071 120.264 214.51 120.438 214.916C121.119 216.67 123.16 217.766 124.869 218.25C126.577 218.734 129.911 218.31 131.068 218.144C131.295 219.059 131.521 219.966 131.695 220.858C131.809 221.47 131.952 222.052 132.028 222.68C132.103 223.307 132.194 223.897 132.285 224.494C132.406 225.658 132.534 226.86 132.625 228.002C132.693 228.758 132.738 229.514 132.791 230.27C132.527 229.386 131.96 227.662 131.899 227.526C130.958 225.657 129.555 224.059 127.824 222.884C127.728 222.672 127.611 222.469 127.477 222.279C127.237 221.907 126.922 221.589 126.552 221.346C126.182 221.103 125.765 220.941 125.328 220.87C124.891 220.799 124.444 220.82 124.016 220.932C123.588 221.045 123.188 221.246 122.842 221.523C120.831 223.269 121.33 228.04 122.26 230.232C122.313 230.361 123.069 231.691 123.553 232.5C123.19 232.054 122.85 231.616 122.472 231.155C121.716 230.255 120.96 229.37 120.144 228.418L118.896 227.065C118.488 226.603 118.004 226.173 117.55 225.719C116.492 224.691 115.358 223.7 114.201 222.695C114.957 222.045 117.77 219.671 118.571 218.106C119.372 216.541 119.932 214.273 119.1 212.587C118.918 212.184 118.654 211.824 118.323 211.53C117.993 211.236 117.604 211.015 117.182 210.882C116.761 210.749 116.316 210.706 115.876 210.756C115.437 210.806 115.013 210.948 114.632 211.173C112.364 212.587 112.153 217.38 112.735 219.686C112.773 219.83 113.377 221.432 113.725 222.309C113.022 221.735 112.326 221.153 111.601 220.586C109.491 218.96 107.314 217.38 105.144 215.793C104.479 215.309 103.821 214.81 103.164 214.326C103.451 214.092 106.815 211.378 107.7 209.593C108.494 208.006 109.068 205.761 108.237 204.075C108.055 203.672 107.79 203.311 107.459 203.017C107.129 202.724 106.74 202.503 106.318 202.369C105.897 202.236 105.452 202.193 105.012 202.243C104.573 202.293 104.149 202.436 103.769 202.661C101.501 204.075 101.281 208.868 101.871 211.173C101.871 211.347 102.786 213.661 103.035 214.235C101.584 213.154 100.155 212.066 98.779 210.932C96.9122 209.413 95.1446 207.777 93.487 206.033C93.623 205.927 97.146 203.107 98.023 201.277C98.8168 199.69 99.3913 197.445 98.5597 195.759C98.3779 195.356 98.1131 194.995 97.7826 194.701C97.452 194.408 97.0633 194.187 96.6417 194.053C96.22 193.92 95.775 193.877 95.3356 193.927C94.8962 193.977 94.4724 194.12 94.0918 194.345C91.8238 195.759 91.6045 200.552 92.1942 202.857C92.1942 203.009 92.8973 204.77 93.2299 205.602L93.1014 205.677C91.4885 203.876 90.0412 201.933 88.7771 199.871C88.0664 198.752 87.4541 197.603 86.8795 196.537C87.5826 196.076 90.8107 193.952 91.8162 192.394C92.8217 190.837 93.5928 188.735 92.9502 186.974C92.8137 186.553 92.5902 186.166 92.2941 185.837C91.998 185.508 91.6361 185.245 91.2318 185.066C90.8274 184.886 90.3898 184.793 89.9474 184.794C89.5049 184.794 89.0675 184.888 88.6637 185.069C86.2671 186.233 85.5187 190.973 85.8438 193.324C85.8438 193.453 86.184 194.738 86.4335 195.668C86.184 195.169 85.9194 194.655 85.6775 194.156C84.8005 192.342 84.1126 190.633 83.5078 189.106C83.1751 188.236 82.8954 187.45 82.6383 186.702C83.0995 185.893 84.9064 182.589 85.0878 180.782C85.2692 178.975 84.9895 176.715 83.5758 175.445C83.2606 175.135 82.8836 174.895 82.4695 174.74C82.0554 174.585 81.6133 174.519 81.172 174.546C80.7306 174.573 80.2999 174.693 79.9079 174.897C79.5158 175.101 79.1711 175.386 78.8962 175.732C77.3086 177.864 78.8281 182.423 80.204 184.358C80.3174 184.525 82.472 186.936 82.472 186.891V186.838C82.7064 187.594 82.9634 188.35 83.228 189.166C83.795 190.678 84.4528 192.44 85.2919 194.277C86.172 196.269 87.1692 198.208 88.2781 200.083C89.513 202.188 90.9296 204.182 92.5117 206.04L92.5722 206.101C91.9069 205.692 90.0169 204.589 89.8582 204.543C87.6733 203.606 82.9029 203.077 81.149 205.08C80.8683 205.422 80.6627 205.82 80.5453 206.246C80.428 206.673 80.4016 207.12 80.4679 207.557C80.5342 207.995 80.6916 208.414 80.9301 208.787C81.1685 209.16 81.4827 209.478 81.8521 209.722C83.3641 210.803 85.6926 210.591 87.3785 210.055C89.2912 209.45 92.5117 206.539 92.7688 206.275C94.416 208.121 96.1838 209.856 98.0608 211.468C99.157 212.413 100.291 213.336 101.44 214.235L100.253 213.57C98.0683 212.633 93.2979 212.103 91.544 214.114C91.2631 214.455 91.0571 214.852 90.9392 215.278C90.8214 215.703 90.7943 216.149 90.8599 216.586C90.9255 217.023 91.0822 217.442 91.3199 217.814C91.5576 218.187 91.8709 218.505 92.2396 218.749C93.7516 219.837 96.08 219.618 97.7735 219.081C99.4669 218.545 102.309 216.118 103.02 215.46L104.351 216.496C106.49 218.129 108.63 219.754 110.678 221.41C111.397 221.992 112.085 222.597 112.78 223.194C112.258 222.899 111.82 222.65 111.744 222.619C109.567 221.682 104.789 221.153 103.043 223.156C102.762 223.498 102.556 223.895 102.438 224.321C102.32 224.748 102.293 225.194 102.358 225.632C102.424 226.069 102.581 226.488 102.818 226.861C103.056 227.235 103.369 227.554 103.738 227.798C105.25 228.879 107.579 228.667 109.272 228.131C110.966 227.594 113.513 225.394 114.383 224.623C115.078 225.258 115.766 225.893 116.409 226.543C116.84 226.989 117.278 227.397 117.687 227.874L118.904 229.249C119.66 230.157 120.416 231.087 121.119 231.986C121.61 232.606 122.071 233.211 122.532 233.816C121.822 233.226 120.401 232.1 120.264 232.024C118.246 230.761 113.612 229.514 111.578 231.268C111.248 231.563 110.985 231.924 110.804 232.328C110.624 232.732 110.53 233.169 110.53 233.612C110.53 234.054 110.624 234.491 110.804 234.895C110.985 235.299 111.248 235.66 111.578 235.955C112.931 237.263 115.245 237.399 116.999 237.127C118.926 236.825 122.427 234.541 122.858 234.254C123.614 235.26 124.37 236.242 125.027 237.187C127.386 240.438 129.223 243.235 130.478 245.209L130.607 245.413L132.232 244.619L131.975 244.233C130.659 242.268 128.747 239.478 126.297 236.25C125.541 235.222 124.687 234.148 123.81 233.052C124.71 232.057 125.553 231.012 126.335 229.922C128.202 230.678 132.103 230.678 132.602 230.678C132.686 231.941 132.754 233.166 132.799 234.322C132.965 238.329 132.958 241.678 132.912 244.022V244.294L134.697 243.424C134.697 241.096 134.613 237.959 134.371 234.239C134.296 232.961 134.19 231.593 134.061 230.194C134.56 230.073 138.597 229.03 140.109 227.813C141.493 226.702 142.952 224.902 142.907 223.028C142.91 222.585 142.82 222.146 142.643 221.741C142.465 221.335 142.204 220.971 141.877 220.673C141.55 220.375 141.163 220.149 140.743 220.01C140.322 219.872 139.877 219.823 139.437 219.867C136.798 220.208 134.583 224.464 134.145 226.808C134.145 226.944 134.009 228.471 133.948 229.431C133.895 228.864 133.85 228.304 133.789 227.715C133.668 226.558 133.517 225.394 133.358 224.154L133.064 222.332C132.98 221.727 132.814 221.1 132.686 220.472C132.368 219.021 131.975 217.577 131.544 216.118C132.557 216.019 136.171 215.589 137.721 214.704C139.27 213.819 140.971 212.262 141.206 210.395C141.276 209.958 141.254 209.511 141.141 209.084C141.027 208.656 140.824 208.258 140.546 207.914C140.268 207.57 139.92 207.289 139.526 207.088C139.131 206.888 138.699 206.773 138.257 206.751C135.596 206.683 132.761 210.531 131.982 212.799C131.93 212.935 131.552 214.613 131.355 215.536C131.09 214.666 130.833 213.797 130.539 212.92C129.677 210.402 128.732 207.885 127.794 205.36L126.955 203.046C127.318 203.009 131.627 202.6 133.358 201.603C134.87 200.718 136.609 199.161 136.844 197.301C136.914 196.864 136.892 196.417 136.778 195.989C136.665 195.561 136.462 195.162 136.184 194.817C135.906 194.473 135.558 194.191 135.164 193.989C134.77 193.788 134.337 193.672 133.895 193.649C131.234 193.589 128.399 197.429 127.62 199.697C127.56 199.871 127.016 202.275 126.902 202.895C126.29 201.194 125.693 199.493 125.178 197.792C124.461 195.501 123.895 193.165 123.485 190.799C123.651 190.799 128.15 190.376 129.926 189.355C131.438 188.471 133.177 186.913 133.411 185.046C133.481 184.61 133.458 184.163 133.344 183.736C133.229 183.309 133.027 182.911 132.749 182.567C132.471 182.224 132.124 181.943 131.73 181.742C131.336 181.541 130.904 181.425 130.463 181.402C127.802 181.334 124.967 185.182 124.188 187.45C124.135 187.601 123.719 189.431 123.538 190.308H123.387C123.04 187.915 122.906 185.497 122.986 183.081C122.986 181.75 123.115 180.48 123.236 179.248C124.082 179.248 127.945 179.248 129.639 178.492C131.332 177.736 133.147 176.428 133.585 174.598C133.704 174.172 133.731 173.725 133.664 173.287C133.598 172.85 133.441 172.431 133.202 172.059C132.963 171.686 132.648 171.368 132.277 171.126C131.907 170.883 131.49 170.722 131.053 170.652C128.414 170.289 125.171 173.835 124.15 175.944C124.09 176.065 123.659 177.312 123.349 178.212C123.417 177.652 123.477 177.078 123.546 176.549C123.818 174.553 124.188 172.769 124.528 171.143C124.732 170.236 124.929 169.42 125.126 168.656C125.957 168.233 129.299 166.486 130.418 165.065C131.536 163.644 132.572 161.618 132.119 159.773C131.871 159.019 131.348 158.386 130.654 158.001C129.961 157.616 129.147 157.506 128.376 157.694Z" fill="#92E3A9"/>
<path d="M80.2494 198.73C82.3284 198.647 86.4864 196.515 86.494 196.515C86.5015 196.515 84.226 194.201 84.0899 194.073C82.2301 192.561 77.7697 190.822 75.5547 192.289C75.1922 192.543 74.8875 192.87 74.6604 193.25C74.4333 193.63 74.289 194.054 74.2369 194.494C74.1848 194.933 74.2261 195.379 74.3581 195.801C74.4901 196.224 74.7098 196.614 75.0028 196.946C76.1973 198.405 78.4728 198.828 80.2494 198.73Z" fill="#92E3A9"/>
<g opacity="0.5">
<path d="M123.228 179.021C123.273 179.021 122.638 175.853 122.57 175.664C121.814 173.396 119.093 169.457 116.432 169.465C115.99 169.479 115.555 169.585 115.157 169.778C114.759 169.971 114.406 170.245 114.121 170.583C113.836 170.921 113.625 171.315 113.502 171.74C113.379 172.164 113.347 172.61 113.408 173.048C113.604 174.916 115.282 176.511 116.802 177.426C118.571 178.507 123.228 179.021 123.228 179.021Z" fill="white"/>
<path d="M128.376 157.694C125.866 158.594 124.596 163.236 124.702 165.609C124.702 165.813 125.178 169.011 125.224 168.989H125.277C125.073 169.745 124.869 170.501 124.657 171.37C124.279 172.965 123.901 174.772 123.553 176.768C123.194 178.918 122.957 181.086 122.842 183.262C122.71 185.696 122.793 188.138 123.092 190.557C123.096 190.588 123.096 190.618 123.092 190.648C122.767 189.937 121.784 187.995 121.686 187.851C120.385 185.863 116.696 182.786 114.126 183.496C113.703 183.627 113.313 183.845 112.98 184.136C112.647 184.427 112.379 184.785 112.193 185.186C112.007 185.587 111.908 186.023 111.901 186.465C111.894 186.907 111.979 187.346 112.153 187.753C112.833 189.499 114.874 190.595 116.583 191.079C118.511 191.631 122.805 190.981 123.145 190.928C123.508 193.385 124.036 195.814 124.725 198.201C125.118 199.592 125.556 200.983 126.018 202.374C125.715 201.769 125.436 201.232 125.39 201.164C124.082 199.176 120.401 196.099 117.83 196.809C117.407 196.938 117.016 197.155 116.683 197.445C116.349 197.735 116.081 198.092 115.895 198.493C115.708 198.894 115.609 199.33 115.602 199.772C115.596 200.214 115.683 200.652 115.857 201.058C116.537 202.812 118.579 203.908 120.287 204.392C121.996 204.876 125.685 204.392 126.66 204.264C126.842 204.793 127.016 205.33 127.197 205.859C128.074 208.399 128.966 210.939 129.76 213.419C130.04 214.303 130.281 215.188 130.516 216.065C130.244 215.528 130.017 215.082 129.972 215.022C128.671 213.033 124.982 209.956 122.412 210.667C121.989 210.796 121.598 211.012 121.264 211.303C120.931 211.593 120.662 211.95 120.476 212.351C120.29 212.752 120.19 213.187 120.184 213.629C120.177 214.071 120.264 214.51 120.438 214.916C121.119 216.67 123.16 217.766 124.869 218.25C126.577 218.734 129.911 218.31 131.068 218.144C131.295 219.059 131.521 219.966 131.695 220.858C131.809 221.47 131.952 222.052 132.028 222.68C132.103 223.307 132.194 223.897 132.285 224.494C132.406 225.658 132.534 226.86 132.625 228.002C132.693 228.758 132.738 229.514 132.791 230.27C132.527 229.386 131.96 227.662 131.899 227.526C130.958 225.657 129.555 224.059 127.824 222.884C127.728 222.672 127.611 222.469 127.477 222.279C127.237 221.907 126.922 221.589 126.552 221.346C126.182 221.103 125.765 220.941 125.328 220.87C124.891 220.799 124.444 220.82 124.016 220.932C123.588 221.045 123.188 221.246 122.842 221.523C120.831 223.269 121.33 228.04 122.26 230.232C122.313 230.361 123.069 231.691 123.553 232.5C123.19 232.054 122.85 231.616 122.472 231.155C121.716 230.255 120.96 229.37 120.144 228.418L118.896 227.065C118.488 226.603 118.004 226.173 117.55 225.719C116.492 224.691 115.358 223.7 114.201 222.695C114.957 222.045 117.77 219.671 118.571 218.106C119.372 216.541 119.932 214.273 119.1 212.587C118.918 212.184 118.654 211.824 118.323 211.53C117.993 211.236 117.604 211.015 117.182 210.882C116.761 210.749 116.316 210.706 115.876 210.756C115.437 210.806 115.013 210.948 114.632 211.173C112.364 212.587 112.153 217.38 112.735 219.686C112.773 219.83 113.377 221.432 113.725 222.309C113.022 221.735 112.326 221.153 111.601 220.586C109.491 218.96 107.314 217.38 105.144 215.793C104.479 215.309 103.821 214.81 103.164 214.326C103.451 214.092 106.815 211.378 107.7 209.593C108.494 208.006 109.068 205.761 108.237 204.075C108.055 203.672 107.79 203.311 107.459 203.017C107.129 202.724 106.74 202.503 106.318 202.369C105.897 202.236 105.452 202.193 105.012 202.243C104.573 202.293 104.149 202.436 103.769 202.661C101.501 204.075 101.281 208.868 101.871 211.173C101.871 211.347 102.786 213.661 103.035 214.235C101.584 213.154 100.155 212.066 98.779 210.932C96.9122 209.413 95.1446 207.777 93.487 206.033C93.623 205.927 97.146 203.107 98.023 201.277C98.8168 199.69 99.3913 197.445 98.5597 195.759C98.3779 195.356 98.1131 194.995 97.7826 194.701C97.452 194.408 97.0633 194.187 96.6417 194.053C96.22 193.92 95.775 193.877 95.3356 193.927C94.8962 193.977 94.4724 194.12 94.0918 194.345C91.8238 195.759 91.6045 200.552 92.1942 202.857C92.1942 203.009 92.8973 204.77 93.2299 205.602L93.1014 205.677C91.4885 203.876 90.0412 201.933 88.7771 199.871C88.0664 198.752 87.4541 197.603 86.8795 196.537C87.5826 196.076 90.8107 193.952 91.8162 192.394C92.8217 190.837 93.5928 188.735 92.9502 186.974C92.8137 186.553 92.5902 186.166 92.2941 185.837C91.998 185.508 91.6361 185.245 91.2318 185.066C90.8274 184.886 90.3898 184.793 89.9474 184.794C89.5049 184.794 89.0675 184.888 88.6637 185.069C86.2671 186.233 85.5187 190.973 85.8438 193.324C85.8438 193.453 86.184 194.738 86.4335 195.668C86.184 195.169 85.9194 194.655 85.6775 194.156C84.8005 192.342 84.1126 190.633 83.5078 189.106C83.1751 188.236 82.8954 187.45 82.6383 186.702C83.0995 185.893 84.9064 182.589 85.0878 180.782C85.2692 178.975 84.9895 176.715 83.5758 175.445C83.2606 175.135 82.8836 174.895 82.4695 174.74C82.0554 174.585 81.6133 174.519 81.172 174.546C80.7306 174.573 80.2999 174.693 79.9079 174.897C79.5158 175.101 79.1711 175.386 78.8962 175.732C77.3086 177.864 78.8281 182.423 80.204 184.358C80.3174 184.525 82.472 186.936 82.472 186.891V186.838C82.7064 187.594 82.9634 188.35 83.228 189.166C83.795 190.678 84.4528 192.44 85.2919 194.277C86.172 196.269 87.1692 198.208 88.2781 200.083C89.513 202.188 90.9296 204.182 92.5117 206.04L92.5722 206.101C91.9069 205.692 90.0169 204.589 89.8582 204.543C87.6733 203.606 82.9029 203.077 81.149 205.08C80.8683 205.422 80.6627 205.82 80.5453 206.246C80.428 206.673 80.4016 207.12 80.4679 207.557C80.5342 207.995 80.6916 208.414 80.9301 208.787C81.1685 209.16 81.4827 209.478 81.8521 209.722C83.3641 210.803 85.6926 210.591 87.3785 210.055C89.2912 209.45 92.5117 206.539 92.7688 206.275C94.416 208.121 96.1838 209.856 98.0608 211.468C99.157 212.413 100.291 213.336 101.44 214.235L100.253 213.57C98.0683 212.633 93.2979 212.103 91.544 214.114C91.2631 214.455 91.0571 214.852 90.9392 215.278C90.8214 215.703 90.7943 216.149 90.8599 216.586C90.9255 217.023 91.0822 217.442 91.3199 217.814C91.5576 218.187 91.8709 218.505 92.2396 218.749C93.7516 219.837 96.08 219.618 97.7735 219.081C99.4669 218.545 102.309 216.118 103.02 215.46L104.351 216.496C106.49 218.129 108.63 219.754 110.678 221.41C111.397 221.992 112.085 222.597 112.78 223.194C112.258 222.899 111.82 222.65 111.744 222.619C109.567 221.682 104.789 221.153 103.043 223.156C102.762 223.498 102.556 223.895 102.438 224.321C102.32 224.748 102.293 225.194 102.358 225.632C102.424 226.069 102.581 226.488 102.818 226.861C103.056 227.235 103.369 227.554 103.738 227.798C105.25 228.879 107.579 228.667 109.272 228.131C110.966 227.594 113.513 225.394 114.383 224.623C115.078 225.258 115.766 225.893 116.409 226.543C116.84 226.989 117.278 227.397 117.687 227.874L118.904 229.249C119.66 230.157 120.416 231.087 121.119 231.986C121.61 232.606 122.071 233.211 122.532 233.816C121.822 233.226 120.401 232.1 120.264 232.024C118.246 230.761 113.612 229.514 111.578 231.268C111.248 231.563 110.985 231.924 110.804 232.328C110.624 232.732 110.53 233.169 110.53 233.612C110.53 234.054 110.624 234.491 110.804 234.895C110.985 235.299 111.248 235.66 111.578 235.955C112.931 237.263 115.245 237.399 116.999 237.127C118.926 236.825 122.427 234.541 122.858 234.254C123.614 235.26 124.37 236.242 125.027 237.187C127.386 240.438 129.223 243.235 130.478 245.209L130.607 245.413L132.232 244.619L131.975 244.233C130.659 242.268 128.747 239.478 126.297 236.25C125.541 235.222 124.687 234.148 123.81 233.052C124.71 232.057 125.553 231.012 126.335 229.922C128.202 230.678 132.103 230.678 132.602 230.678C132.686 231.941 132.754 233.166 132.799 234.322C132.965 238.329 132.958 241.678 132.912 244.022V244.294L134.697 243.424C134.697 241.096 134.613 237.959 134.371 234.239C134.296 232.961 134.19 231.593 134.061 230.194C134.56 230.073 138.597 229.03 140.109 227.813C141.493 226.702 142.952 224.902 142.907 223.028C142.91 222.585 142.82 222.146 142.643 221.741C142.465 221.335 142.204 220.971 141.877 220.673C141.55 220.375 141.163 220.149 140.743 220.01C140.322 219.872 139.877 219.823 139.437 219.867C136.798 220.208 134.583 224.464 134.145 226.808C134.145 226.944 134.009 228.471 133.948 229.431C133.895 228.864 133.85 228.304 133.789 227.715C133.668 226.558 133.517 225.394 133.358 224.154L133.064 222.332C132.98 221.727 132.814 221.1 132.686 220.472C132.368 219.021 131.975 217.577 131.544 216.118C132.557 216.019 136.171 215.589 137.721 214.704C139.27 213.819 140.971 212.262 141.206 210.395C141.276 209.958 141.254 209.511 141.141 209.084C141.027 208.656 140.824 208.258 140.546 207.914C140.268 207.57 139.92 207.289 139.526 207.088C139.131 206.888 138.699 206.773 138.257 206.751C135.596 206.683 132.761 210.531 131.982 212.799C131.93 212.935 131.552 214.613 131.355 215.536C131.09 214.666 130.833 213.797 130.539 212.92C129.677 210.402 128.732 207.885 127.794 205.36L126.955 203.046C127.318 203.009 131.627 202.6 133.358 201.603C134.87 200.718 136.609 199.161 136.844 197.301C136.914 196.864 136.892 196.417 136.778 195.989C136.665 195.561 136.462 195.162 136.184 194.817C135.906 194.473 135.558 194.191 135.164 193.989C134.77 193.788 134.337 193.672 133.895 193.649C131.234 193.589 128.399 197.429 127.62 199.697C127.56 199.871 127.016 202.275 126.902 202.895C126.29 201.194 125.693 199.493 125.178 197.792C124.461 195.501 123.895 193.165 123.485 190.799C123.651 190.799 128.15 190.376 129.926 189.355C131.438 188.471 133.177 186.913 133.411 185.046C133.481 184.61 133.458 184.163 133.344 183.736C133.229 183.309 133.027 182.911 132.749 182.567C132.471 182.224 132.124 181.943 131.73 181.742C131.336 181.541 130.904 181.425 130.463 181.402C127.802 181.334 124.967 185.182 124.188 187.45C124.135 187.601 123.719 189.431 123.538 190.308H123.387C123.04 187.915 122.906 185.497 122.986 183.081C122.986 181.75 123.115 180.48 123.236 179.248C124.082 179.248 127.945 179.248 129.639 178.492C131.332 177.736 133.147 176.428 133.585 174.598C133.704 174.172 133.731 173.725 133.664 173.287C133.598 172.85 133.441 172.431 133.202 172.059C132.963 171.686 132.648 171.368 132.277 171.126C131.907 170.883 131.49 170.722 131.053 170.652C128.414 170.289 125.171 173.835 124.15 175.944C124.09 176.065 123.659 177.312 123.349 178.212C123.417 177.652 123.477 177.078 123.546 176.549C123.818 174.553 124.188 172.769 124.528 171.143C124.732 170.236 124.929 169.42 125.126 168.656C125.957 168.233 129.299 166.486 130.418 165.065C131.536 163.644 132.572 161.618 132.119 159.773C131.871 159.019 131.348 158.386 130.654 158.001C129.961 157.616 129.147 157.506 128.376 157.694Z" fill="white"/>
<path d="M80.2494 198.73C82.3284 198.647 86.4864 196.515 86.494 196.515C86.5015 196.515 84.226 194.201 84.0899 194.073C82.2301 192.561 77.7697 190.822 75.5547 192.289C75.1922 192.543 74.8875 192.87 74.6604 193.25C74.4333 193.63 74.289 194.054 74.2369 194.494C74.1848 194.933 74.2261 195.379 74.3581 195.801C74.4901 196.224 74.7098 196.614 75.0028 196.946C76.1973 198.405 78.4728 198.828 80.2494 198.73Z" fill="white"/>
</g>
<path d="M105.659 255.823C105.659 255.823 118.284 225.394 125.352 226.717C132.421 228.04 113.256 275.229 113.256 275.229C113.256 275.229 135.468 233.332 150.618 233.332C165.768 233.332 145.061 279.637 125.882 295.074C125.882 295.074 156.167 262.438 173.835 269.499C191.502 276.56 138.499 309.627 138.499 309.627C138.499 309.627 169.291 299.928 165.761 307.427C162.23 314.927 152.636 316.242 152.636 316.242L187.465 318.011H66.2861L93.5474 315.365C93.5474 315.365 65.273 301.251 72.8482 295.52C80.4233 289.79 97.078 302.135 97.078 302.135C97.078 302.135 68.3046 270.383 73.8536 258.469C79.4027 246.554 104.147 280.083 104.147 280.083C104.147 280.083 83.9538 237.301 87.9908 229.824C92.0279 222.347 105.659 255.823 105.659 255.823Z" fill="#92E3A9"/>
<path opacity="0.5" d="M105.659 255.823C105.659 255.823 118.284 225.394 125.352 226.717C132.421 228.04 113.256 275.229 113.256 275.229C113.256 275.229 135.468 233.332 150.618 233.332C165.768 233.332 145.061 279.637 125.882 295.074C125.882 295.074 156.167 262.438 173.835 269.499C191.502 276.56 138.499 309.627 138.499 309.627C138.499 309.627 169.291 299.928 165.761 307.427C162.23 314.927 152.636 316.242 152.636 316.242L187.465 318.011H66.2861L93.5474 315.365C93.5474 315.365 65.273 301.251 72.8482 295.52C80.4233 289.79 97.078 302.135 97.078 302.135C97.078 302.135 68.3046 270.383 73.8536 258.469C79.4027 246.554 104.147 280.083 104.147 280.083C104.147 280.083 83.9538 237.301 87.9908 229.824C92.0279 222.347 105.659 255.823 105.659 255.823Z" fill="white"/>
<path d="M101.621 257.426C112.727 290.243 112.727 313.468 112.727 313.468C112.727 313.468 99.603 313.967 85.9723 303.874" stroke="#263238" stroke-linecap="round" stroke-linejoin="round"/>
<path d="M107.178 275.101C109.461 265.289 112.494 255.667 116.25 246.32" stroke="#263238" stroke-linecap="round" stroke-linejoin="round"/>
<path d="M139.988 255.914L111.722 297.819C111.722 297.819 92.5344 281.663 85.9723 272.576" stroke="#263238" stroke-linecap="round" stroke-linejoin="round"/>
<path d="M112.228 307.911C112.228 307.911 142.007 293.774 154.126 285.7" stroke="#263238" stroke-linecap="round" stroke-linejoin="round"/>
<path d="M268.524 255.823C268.524 255.823 255.906 225.394 248.868 226.717C241.829 228.04 260.964 275.229 260.964 275.229C260.964 275.229 238.752 233.332 223.61 233.332C208.467 233.332 229.159 279.637 248.346 295.074C248.346 295.074 218.053 262.438 200.385 269.499C182.718 276.56 235.728 309.627 235.728 309.627C235.728 309.627 204.929 299.928 208.467 307.427C212.005 314.927 221.591 316.242 221.591 316.242L186.732 318.011H307.904L280.642 315.365C280.642 315.365 308.909 301.251 301.342 295.52C293.774 289.79 277.104 302.135 277.104 302.135C277.104 302.135 305.885 270.383 300.329 258.469C294.772 246.554 270.036 280.083 270.036 280.083C270.036 280.083 290.236 237.301 286.191 229.801C282.147 222.302 268.524 255.823 268.524 255.823Z" fill="#92E3A9"/>
<path opacity="0.5" d="M268.524 255.823C268.524 255.823 255.906 225.394 248.868 226.717C241.829 228.04 260.964 275.229 260.964 275.229C260.964 275.229 238.752 233.332 223.61 233.332C208.467 233.332 229.159 279.637 248.346 295.074C248.346 295.074 218.053 262.438 200.385 269.499C182.718 276.56 235.728 309.627 235.728 309.627C235.728 309.627 204.929 299.928 208.467 307.427C212.005 314.927 221.591 316.242 221.591 316.242L186.732 318.011H307.904L280.642 315.365C280.642 315.365 308.909 301.251 301.342 295.52C293.774 289.79 277.104 302.135 277.104 302.135C277.104 302.135 305.885 270.383 300.329 258.469C294.772 246.554 270.036 280.083 270.036 280.083C270.036 280.083 290.236 237.301 286.191 229.801C282.147 222.302 268.524 255.823 268.524 255.823Z" fill="white"/>
<path d="M272.561 257.426C261.455 290.243 261.455 313.468 261.455 313.468C261.455 313.468 274.579 313.967 288.21 303.874" stroke="#263238" stroke-linecap="round" stroke-linejoin="round"/>
<path d="M267.012 275.101C264.729 265.289 261.696 255.667 257.94 246.32" stroke="#263238" stroke-linecap="round" stroke-linejoin="round"/>
<path d="M234.194 255.914L262.468 297.819C262.468 297.819 281.648 281.663 288.21 272.576" stroke="#263238" stroke-linecap="round" stroke-linejoin="round"/>
<path d="M261.962 307.911C261.962 307.911 232.175 293.774 220.056 285.7" stroke="#263238" stroke-linecap="round" stroke-linejoin="round"/>
<path d="M248.142 91.854H131.415C128.597 91.854 126.312 94.1387 126.312 96.957V315.509C126.312 318.327 128.597 320.612 131.415 320.612H248.142C250.96 320.612 253.245 318.327 253.245 315.509V96.957C253.245 94.1387 250.96 91.854 248.142 91.854Z" fill="#263238" stroke="#263238" stroke-miterlimit="10"/>
<path d="M198.556 105.523H182.755C182.542 105.523 182.331 105.48 182.133 105.399C181.936 105.317 181.757 105.197 181.606 105.046C181.455 104.896 181.335 104.716 181.254 104.519C181.172 104.322 181.13 104.111 181.13 103.897C181.13 103.684 181.172 103.473 181.254 103.276C181.336 103.079 181.456 102.901 181.607 102.75C181.758 102.6 181.937 102.481 182.134 102.4C182.331 102.319 182.542 102.278 182.755 102.279H198.556C198.985 102.279 199.396 102.45 199.7 102.753C200.003 103.057 200.174 103.468 200.174 103.897C200.175 104.11 200.134 104.321 200.053 104.519C199.972 104.716 199.853 104.895 199.703 105.046C199.552 105.197 199.374 105.317 199.177 105.399C198.98 105.48 198.769 105.523 198.556 105.523Z" fill="#92E3A9"/>
<path d="M245.224 300.17H134.334V105.711H160.62L163.576 108.161C164.606 109.022 165.907 109.493 167.25 109.491H213.623C215.015 109.484 216.357 108.974 217.403 108.055L220.072 105.711H245.201L245.224 300.17Z" fill="white" stroke="#263238" stroke-width="0.938618" stroke-linecap="round" stroke-linejoin="round"/>
<path d="M178.62 120.045L177.108 114.965H139.369V120.045V289.843V294.931H240.529V120.045H178.62Z" fill="#92E3A9"/>
<path d="M236.968 129.2H142.922V289.336H236.968V129.2Z" fill="white"/>
<path d="M193.324 306.18C193.326 305.68 193.179 305.191 192.902 304.775C192.626 304.359 192.232 304.034 191.771 303.842C191.31 303.65 190.802 303.598 190.311 303.695C189.821 303.792 189.37 304.032 189.017 304.384C188.663 304.737 188.421 305.187 188.323 305.677C188.225 306.167 188.275 306.675 188.466 307.137C188.657 307.599 188.98 307.994 189.396 308.271C189.811 308.549 190.3 308.698 190.799 308.698C191.467 308.696 192.107 308.43 192.58 307.958C193.053 307.487 193.32 306.848 193.324 306.18Z" fill="#92E3A9"/>
<path d="M182.884 282.343C199.986 282.343 213.85 262.617 213.85 238.284C213.85 213.95 199.986 194.224 182.884 194.224C165.782 194.224 151.918 213.95 151.918 238.284C151.918 262.617 165.782 282.343 182.884 282.343Z" fill="#92E3A9"/>
<path opacity="0.5" d="M182.884 282.343C199.986 282.343 213.85 262.617 213.85 238.284C213.85 213.95 199.986 194.224 182.884 194.224C165.782 194.224 151.918 213.95 151.918 238.284C151.918 262.617 165.782 282.343 182.884 282.343Z" fill="white"/>
<path d="M187.276 189.106C187.276 189.106 185.341 185.87 183.564 185.711C181.788 185.553 160.635 198.828 157.399 205.738C154.164 212.648 151.102 226.513 159.667 239.856C168.021 252.837 181.115 252.406 187.904 251.756C194.693 251.105 199.244 248.898 206.123 243.379C213.003 237.86 219.316 229.733 220.23 224.214C221.145 218.696 217.781 215.626 215.634 214.863C213.487 214.099 201.066 214.25 192.016 205.035C182.967 195.819 187.276 189.106 187.276 189.106Z" fill="#263238" stroke="#263238" stroke-linecap="round" stroke-linejoin="round"/>
<path d="M190.021 184.902C190.021 184.902 184.532 187.004 181.138 190.716C177.743 194.428 175.649 200.249 175.49 208.807C175.332 217.365 178.076 227.049 188.728 231.253C199.38 235.456 208.913 232.221 211.982 229.31C215.052 226.399 218.786 218.174 218.786 218.174C218.786 218.174 201.837 222.71 193.763 213.162C185.689 203.613 190.021 184.902 190.021 184.902Z" fill="white" stroke="#263238" stroke-linecap="round" stroke-linejoin="round"/>
<path d="M284.883 190.867C280.741 184.653 270.852 182.816 263.035 180.283C255.218 177.751 250.614 172.723 252.685 160.28C254.757 147.836 265.537 127.62 265.333 123.939C265.129 120.257 228.078 120.491 224.623 121.671C221.168 122.85 220.487 122.585 217.267 126.728C215.482 128.966 213.867 131.333 212.436 133.812L216.428 125.42H216.723C217.156 124.318 217.772 123.295 218.544 122.396C222.057 118.321 224.048 113.154 224.177 107.775C224.328 99.8601 218.696 100.624 217.63 103.058C216.564 105.492 210.327 113.869 208.497 116.152C206.668 118.435 202.865 124.68 202.865 124.68L198.639 139.331C198.639 139.331 197.717 143.7 192.425 160.264C187.133 176.828 189.438 184.464 189.438 184.464C189.438 184.464 188.055 183.776 184.834 193.665C181.614 203.553 182.997 216.201 188.743 222.181C194.489 228.161 202.086 227.934 210.599 224.487C215.835 222.243 220.197 218.352 223.02 213.404C223.02 213.404 231.994 211.136 238.662 206.048C245.33 200.96 250.387 195.698 260.064 196.159C269.741 196.62 280.763 202.139 284.445 201.905C288.127 201.671 289.026 197.074 284.883 190.867Z" fill="white"/>
<mask id="mask0_579_3346" style="mask-type:luminance" maskUnits="userSpaceOnUse" x="183" y="101" width="105" height="126">
<path d="M284.883 190.867C280.741 184.653 270.852 182.816 263.035 180.283C255.218 177.751 250.614 172.723 252.685 160.28C254.757 147.836 265.537 127.62 265.333 123.939C265.129 120.257 228.078 120.491 224.623 121.671C221.168 122.85 220.487 122.585 217.267 126.728C215.482 128.966 213.867 131.333 212.436 133.812L216.428 125.42H216.723C217.156 124.318 217.772 123.295 218.544 122.396C222.057 118.321 224.048 113.154 224.177 107.775C224.328 99.8601 218.696 100.624 217.63 103.058C216.564 105.492 210.327 113.869 208.497 116.152C206.668 118.435 202.865 124.68 202.865 124.68L198.639 139.331C198.639 139.331 197.717 143.7 192.425 160.264C187.133 176.828 189.438 184.464 189.438 184.464C189.438 184.464 188.055 183.776 184.834 193.665C181.614 203.553 182.997 216.201 188.743 222.181C194.489 228.161 202.086 227.934 210.599 224.487C215.835 222.243 220.197 218.352 223.02 213.404C223.02 213.404 231.994 211.136 238.662 206.048C245.33 200.96 250.387 195.698 260.064 196.159C269.741 196.62 280.763 202.139 284.445 201.905C288.127 201.671 289.026 197.074 284.883 190.867Z" fill="white"/>
</mask>
<g mask="url(#mask0_579_3346)">
<path d="M225.56 169.344C199.97 173.162 191.926 179.27 194.481 187.677C195.011 189.344 195.873 190.887 197.014 192.213C197.014 192.372 197.014 192.546 197.059 192.727C197.059 192.727 197.513 192.999 198.193 193.483C199.089 194.349 200.058 195.135 201.088 195.834C202.767 197.429 204.271 199.425 203.961 201.277C203.304 205.224 194.133 212.119 189.499 212.451C184.865 212.784 183.254 208.18 182.597 213.109C181.939 218.038 192.13 230.194 201.988 228.879C211.846 227.564 220.064 213.759 220.064 213.759C220.064 213.759 218.749 211.491 225.356 204.559C229.695 200.023 235.902 198.019 240.657 196.159C245.147 194.839 249.523 193.16 253.744 191.14C265.439 185.409 279.334 189.234 279.334 189.234C279.334 189.234 251.151 165.481 225.56 169.344Z" fill="#92E3A9"/>
<path opacity="0.5" d="M225.56 169.344C199.97 173.162 191.926 179.27 194.481 187.677C195.011 189.344 195.873 190.887 197.014 192.213C197.014 192.372 197.014 192.546 197.059 192.727C197.059 192.727 197.513 192.999 198.193 193.483C199.089 194.349 200.058 195.135 201.088 195.834C202.767 197.429 204.271 199.425 203.961 201.277C203.304 205.224 194.133 212.119 189.499 212.451C184.865 212.784 183.254 208.18 182.597 213.109C181.939 218.038 192.13 230.194 201.988 228.879C211.846 227.564 220.064 213.759 220.064 213.759C220.064 213.759 218.749 211.491 225.356 204.559C229.695 200.023 235.902 198.019 240.657 196.159C245.147 194.839 249.523 193.16 253.744 191.14C265.439 185.409 279.334 189.234 279.334 189.234C279.334 189.234 251.151 165.481 225.56 169.344Z" fill="white"/>
</g>
<path d="M284.883 190.867C280.741 184.653 270.852 182.816 263.035 180.283C255.218 177.751 250.614 172.723 252.685 160.28C254.757 147.836 265.537 127.62 265.333 123.939C265.129 120.257 228.078 120.491 224.623 121.671C221.168 122.85 220.487 122.585 217.267 126.728C215.482 128.966 213.867 131.333 212.436 133.812L216.428 125.42H216.723C217.156 124.318 217.772 123.295 218.544 122.396C222.057 118.321 224.048 113.154 224.177 107.775C224.328 99.8601 218.696 100.624 217.63 103.058C216.564 105.492 210.327 113.869 208.497 116.152C206.668 118.435 202.865 124.68 202.865 124.68L198.639 139.331C198.639 139.331 197.717 143.7 192.425 160.264C187.133 176.828 189.438 184.464 189.438 184.464C189.438 184.464 188.055 183.776 184.834 193.665C181.614 203.553 182.997 216.201 188.743 222.181C194.489 228.161 202.086 227.934 210.599 224.487C215.835 222.243 220.197 218.352 223.02 213.404C223.02 213.404 231.994 211.136 238.662 206.048C245.33 200.96 250.387 195.698 260.064 196.159C269.741 196.62 280.763 202.139 284.445 201.905C288.127 201.671 289.026 197.074 284.883 190.867Z" stroke="#263238" stroke-linecap="round" stroke-linejoin="round"/>
<path d="M285.012 201.852C285.012 201.852 285.496 199.917 280.007 197.316C274.519 194.715 272.258 196.507 272.258 197.8C272.258 199.093 284.165 201.852 285.012 201.852Z" fill="white" stroke="#263238" stroke-linecap="round" stroke-linejoin="round"/>
<path d="M233.007 113.271L219.157 123.931H237.732C237.732 123.931 237.732 110.837 233.007 113.271Z" fill="white" stroke="#263238" stroke-linecap="round" stroke-linejoin="round"/>
<path d="M215.634 190.157C217.601 187.934 220.053 186.193 222.801 185.069" stroke="#263238" stroke-linecap="round" stroke-linejoin="round"/>
<path d="M213.116 194.292C213.329 193.678 213.605 193.087 213.94 192.531" stroke="#263238" stroke-linecap="round" stroke-linejoin="round"/>
<path d="M207.598 208.656C206.857 208.004 206.164 207.299 205.526 206.547" stroke="#263238" stroke-linecap="round" stroke-linejoin="round"/>
<path d="M223.02 213.404C218.749 213.89 214.433 213.005 210.697 210.879" stroke="#263238" stroke-linecap="round" stroke-linejoin="round"/>
<path d="M274.806 123.016H205.012C195.373 123.016 187.564 130.478 187.564 139.648V172.534C187.564 180.533 193.468 187.216 201.345 188.826L197.664 199.72L214.704 189.227H274.806C284.437 189.227 292.254 181.765 292.254 172.595V139.709C292.254 130.478 284.437 123.016 274.806 123.016Z" fill="white" stroke="#263238" stroke-width="2" stroke-miterlimit="10"/>
<path d="M198.926 145.16H277.384" stroke="#263238" stroke-width="2.06409" stroke-miterlimit="10" stroke-linecap="round"/>
<path d="M198.926 153.241H277.384" stroke="#263238" stroke-width="2.06409" stroke-miterlimit="10" stroke-linecap="round"/>
<path d="M198.926 161.315H277.384" stroke="#263238" stroke-width="2.06409" stroke-miterlimit="10" stroke-linecap="round"/>
<path d="M198.926 169.389H277.384" stroke="#263238" stroke-width="2.06409" stroke-miterlimit="10" stroke-linecap="round"/>
<path d="M291.619 151.843C296.993 151.843 301.349 147.683 301.349 142.551C301.349 137.42 296.993 133.26 291.619 133.26C286.246 133.26 281.89 137.42 281.89 142.551C281.89 147.683 286.246 151.843 291.619 151.843Z" fill="#263238"/>
<path d="M290.863 149.113C290.544 148.475 290.4 147.762 290.448 147.05V139.49L288.739 140.442C288.555 140.549 288.347 140.606 288.134 140.608C287.975 140.61 287.817 140.578 287.671 140.514C287.525 140.45 287.395 140.356 287.288 140.238C287.065 140.007 286.943 139.697 286.947 139.376C286.942 139.158 287.006 138.944 287.129 138.764C287.305 138.553 287.515 138.372 287.749 138.227L291.06 136.534C291.43 136.268 291.862 136.104 292.315 136.057C293.441 136.057 294.001 136.904 294.001 138.598V147.314C294.001 148.97 293.411 149.794 292.224 149.794C291.957 149.817 291.688 149.766 291.448 149.646C291.207 149.526 291.005 149.342 290.863 149.113Z" fill="white"/>
<path d="M254.288 118.148C254.288 118.148 254.598 124.233 260.079 127.129C265.56 130.024 272.561 129.397 272.712 125.761C272.863 122.124 268.599 118.299 265.711 113.423C262.823 108.546 256.42 111.298 253.683 114.647" fill="white"/>
<path d="M254.288 118.148C254.288 118.148 254.598 124.233 260.079 127.129C265.56 130.024 272.561 129.397 272.712 125.761C272.863 122.124 268.599 118.299 265.711 113.423C262.823 108.546 256.42 111.298 253.683 114.647" stroke="#263238" stroke-linecap="round" stroke-linejoin="round"/>
<path d="M263.731 123.016C263.269 125.451 264.948 126.796 266.467 127.552C267.987 128.308 271.003 127.862 272.712 125.73C272.787 123.946 271.812 122.132 270.444 120.174C268.539 120.416 264.086 121.111 263.731 123.016Z" fill="white" stroke="#263238" stroke-linecap="round" stroke-linejoin="round"/>
<path d="M242.873 118.148C242.873 118.148 243.175 124.233 248.656 127.129C254.137 130.024 261.145 129.397 261.296 125.761C261.448 122.124 257.184 118.299 254.288 113.423C251.393 108.546 245.005 111.298 242.26 114.647" fill="white"/>
<path d="M242.873 118.148C242.873 118.148 243.175 124.233 248.656 127.129C254.137 130.024 261.145 129.397 261.296 125.761C261.448 122.124 257.184 118.299 254.288 113.423C251.393 108.546 245.005 111.298 242.26 114.647" stroke="#263238" stroke-linecap="round" stroke-linejoin="round"/>
<path d="M252.315 123.016C251.854 125.451 253.532 126.796 255.052 127.552C256.571 128.308 259.588 127.862 261.296 125.73C261.364 123.946 260.389 122.132 259.028 120.174C257.123 120.416 252.67 121.111 252.315 123.016Z" fill="white" stroke="#263238" stroke-linecap="round" stroke-linejoin="round"/>
<path d="M232.251 118.148C232.251 118.148 232.553 124.233 238.034 127.129C243.515 130.024 250.516 129.397 250.667 125.761C250.818 122.124 246.562 118.299 243.666 113.423C240.771 108.546 234.375 111.298 231.638 114.647" fill="white"/>
<path d="M232.251 118.148C232.251 118.148 232.553 124.233 238.034 127.129C243.515 130.024 250.516 129.397 250.667 125.761C250.818 122.124 246.562 118.299 243.666 113.423C240.771 108.546 234.375 111.298 231.638 114.647" stroke="#263238" stroke-linecap="round" stroke-linejoin="round"/>
<path d="M241.686 123.016C241.232 125.451 242.903 126.796 244.43 127.552C245.957 128.308 248.966 127.862 250.667 125.73C250.743 123.946 249.767 122.132 248.399 120.174C246.494 120.416 242.041 121.111 241.686 123.016Z" fill="white" stroke="#263238" stroke-linecap="round" stroke-linejoin="round"/>
<path d="M189.438 184.464C189.438 184.464 189.862 193.823 195.025 200.121" stroke="#263238" stroke-linecap="round" stroke-linejoin="round"/>
<path d="M174.409 223.527C174.409 225.432 173.139 226.974 171.574 226.974C170.009 226.974 168.739 225.462 168.739 223.527C168.739 221.591 170.009 220.079 171.574 220.079C173.139 220.079 174.409 221.621 174.409 223.527Z" fill="white"/>
<path d="M167.356 227.821C167.356 229.726 166.086 231.268 164.521 231.268C162.956 231.268 161.686 229.756 161.686 227.821C161.686 225.885 162.956 224.366 164.521 224.366C166.086 224.366 167.356 225.916 167.356 227.821Z" stroke="#263238" stroke-linecap="round" stroke-linejoin="round"/>
</svg>
