<svg width="378" height="378" viewBox="0 0 378 378" fill="none" xmlns="http://www.w3.org/2000/svg">
<g clip-path="url(#clip0_579_3097)">
<path d="M181.399 354.61L180.918 345.127C180.868 345.103 180.817 345.08 180.767 345.057C175.605 342.686 169.689 346.979 171.338 351.874C172.889 356.48 173.931 361.446 176.771 365.477C178.449 367.819 180.707 369.8 183.378 371.274C186.049 372.748 189.065 373.676 192.202 373.991L198.76 377.507C199.66 373.114 199.462 368.603 198.179 364.285C196.896 359.966 194.558 355.942 191.328 352.49C189.494 350.57 187.391 348.859 185.068 347.398C183.498 351.024 181.399 354.61 181.399 354.61Z" fill="#F2F2F2"/>
<path d="M122.682 258.369C110.056 246.968 91.7584 240.43 72.4817 240.43L71.7381 240.432C59.041 240.436 46.5705 237.487 35.602 231.888L34.4606 231.305L35.3799 230.476C40.3567 225.968 44.5124 220.817 47.7014 215.203C45.4365 217.052 42.7352 218.442 39.7887 219.275C36.8422 220.109 33.7224 220.365 30.6503 220.026C27.4069 219.687 24.2931 218.71 21.5425 217.167C18.792 215.625 16.4761 213.557 14.7685 211.119C8.03113 201.549 1.52588e-05 187.968 1.52588e-05 177.623C0.0105031 168.878 2.10179 160.231 6.14058 152.234C10.1794 144.236 16.077 137.063 23.4577 131.171C28.1303 127.482 31.8625 122.973 34.411 117.936C36.9595 112.9 38.2671 107.45 38.2484 101.942L38.2447 101.158C38.2434 93.9058 39.2557 86.6807 41.2588 79.6439L41.4622 78.9333L42.2973 78.9588C47.6823 79.1193 53.0701 78.7241 58.3496 77.7814C53.3974 77.2496 48.5529 76.1215 43.9534 74.4291L43.0551 74.1109L43.3599 73.305C64.376 61.9125 111.815 67.8121 139.35 12.6557C161.678 -32.0687 240.456 52.3575 240.456 101.158C240.456 106.137 234.827 112.718 239.041 116.009C284.59 151.587 253.162 174.433 243.253 197.422C240.902 202.876 245.999 208.864 245.999 214.765C245.999 215.766 245.97 216.8 245.913 217.837L245.825 219.431L244.306 218.546C241.302 216.823 238.517 214.823 235.999 212.581C238.611 217.844 239.842 223.552 239.601 229.287C239.361 235.021 237.655 240.635 234.608 245.716C229.835 253.604 225.217 259.251 220.883 262.5C206.998 272.902 189.099 278.268 170.846 277.501C152.593 276.733 135.364 269.889 122.682 258.369Z" fill="#E6E6E6"/>
<path d="M198.942 377.039C199.252 377.038 199.552 376.94 199.786 376.762C200.02 376.584 200.174 376.337 200.217 376.068C200.272 375.731 205.641 341.831 200.819 296.776C196.366 255.166 182.066 195.234 139.228 146.013C139.125 145.894 138.997 145.795 138.851 145.72C138.704 145.646 138.542 145.597 138.374 145.577C138.206 145.557 138.035 145.566 137.871 145.604C137.708 145.642 137.554 145.708 137.419 145.798C137.284 145.888 137.171 146 137.085 146.128C137 146.257 136.945 146.399 136.922 146.546C136.9 146.693 136.91 146.842 136.954 146.986C136.997 147.129 137.073 147.264 137.176 147.382C179.644 196.178 193.828 255.671 198.25 296.986C203.044 341.779 197.717 375.415 197.663 375.75C197.637 375.91 197.651 376.074 197.703 376.229C197.755 376.384 197.845 376.528 197.966 376.65C198.088 376.772 198.238 376.87 198.406 376.937C198.574 377.004 198.757 377.039 198.942 377.039Z" fill="#3F3D56"/>
<path d="M163.983 215.442C164.256 215.442 164.521 215.366 164.742 215.226C164.963 215.086 165.127 214.888 165.211 214.662C165.296 214.435 165.296 214.19 165.212 213.963C165.127 213.736 164.963 213.539 164.743 213.398C164.587 213.299 148.916 203.413 125.488 195.903C103.83 188.961 70.8959 182.667 36.991 192.115C36.8293 192.16 36.6793 192.232 36.5496 192.328C36.4198 192.423 36.3129 192.54 36.2349 192.672C36.1568 192.804 36.1093 192.948 36.0949 193.096C36.0805 193.244 36.0995 193.393 36.151 193.534C36.2024 193.676 36.2852 193.807 36.3946 193.92C36.504 194.034 36.6379 194.127 36.7885 194.195C36.9392 194.263 37.1038 194.305 37.2728 194.317C37.4418 194.33 37.6119 194.313 37.7734 194.267C70.9837 185.014 103.321 191.203 124.6 198.024C147.694 205.428 163.073 215.129 163.226 215.226C163.446 215.366 163.711 215.442 163.983 215.442Z" fill="#3F3D56"/>
<path d="M223.031 86.6833C223.051 86.4454 222.984 86.208 222.84 86.0053C222.697 85.8026 222.483 85.6449 222.231 85.555C221.978 85.465 221.7 85.4473 221.435 85.5044C221.171 85.5615 220.934 85.6905 220.758 85.8729C220.634 86.0016 208.243 98.9745 198 118.892C188.532 137.305 178.99 165.611 187.311 195.899C187.391 196.19 187.6 196.441 187.892 196.598C188.184 196.754 188.535 196.803 188.867 196.733C189.2 196.663 189.487 196.48 189.666 196.224C189.845 195.969 189.9 195.662 189.82 195.37C181.67 165.703 191.05 137.911 200.353 119.82C210.45 100.186 222.609 87.4555 222.731 87.3292C222.906 87.1472 223.012 86.921 223.031 86.6833Z" fill="#3F3D56"/>
<path d="M221.285 144.926C222.373 152.615 228.459 158.955 237.308 158.955C241.558 158.955 245.634 157.477 248.639 154.846C251.644 152.215 253.332 148.647 253.332 144.926C253.332 137.178 246.12 131.614 237.308 130.898C227.959 130.138 219.887 135.055 221.285 144.926Z" fill="#2F2E41"/>
<path d="M244.73 370.86L250.832 370.859L253.734 350.253L244.729 350.254L244.73 370.86Z" fill="#FFB6B6"/>
<path d="M244.515 376.433L263.279 376.432V376.224C263.279 374.529 262.51 372.902 261.14 371.703C259.77 370.504 257.913 369.83 255.976 369.83L252.548 367.554L246.153 369.831L244.515 369.831L244.515 376.433Z" fill="#2F2E41"/>
<path d="M220.695 370.86L226.796 370.859L229.699 350.253L220.693 350.254L220.695 370.86Z" fill="#FFB6B6"/>
<path d="M220.48 376.433L239.244 376.432V376.224C239.244 374.529 238.475 372.902 237.105 371.703C235.735 370.504 233.878 369.83 231.941 369.83L228.513 367.554L222.118 369.831L220.48 369.831L220.48 376.433Z" fill="#2F2E41"/>
<path d="M265.728 241.8L270.042 254.75L264.96 309.594C264.96 309.594 267.577 313.023 265.728 313.023C263.879 313.023 261.508 313.783 263.002 315.831C264.495 317.879 259.39 325.231 259.39 325.231L252.17 364.282L242.969 364.163C242.969 364.163 238.291 361.881 240.916 359.574C243.542 357.267 245.39 357.267 242.925 355.109C240.46 352.951 240.46 353.601 240.46 351.927C240.46 350.253 237.99 329.796 243.847 321.949L242.083 289.955L237.926 321.337L229.367 363.203L220.504 363.139C220.504 363.139 216.41 359.684 216.418 357.127C216.425 354.57 218.947 354.357 217.07 352.845C215.192 351.332 215.192 328.097 220.739 315.181C220.739 315.181 223.877 307.965 220.732 305.492C217.587 303.02 220.728 300.19 220.728 300.19C220.728 300.19 225.709 298.614 220.724 294.072C215.738 289.53 220.697 257.409 220.697 257.409C220.697 257.409 215.247 244.443 220.766 239.344C226.286 234.246 265.728 241.8 265.728 241.8Z" fill="#2F2E41"/>
<path d="M188.893 264.111L196.59 247.825L202.654 250.775L198.992 267.341C199.358 268.391 199.384 269.509 199.064 270.571C198.745 271.632 198.094 272.594 197.184 273.349C196.274 274.105 195.142 274.622 193.914 274.845C192.687 275.068 191.412 274.986 190.235 274.609C189.058 274.233 188.023 273.576 187.249 272.713C186.474 271.85 185.99 270.815 185.851 269.724C185.711 268.633 185.922 267.53 186.46 266.538C186.997 265.547 187.84 264.706 188.893 264.111Z" fill="#FFB6B6"/>
<path d="M318.05 135.332L306.339 149.667L301.196 145.591L309.05 130.182C308.964 129.087 309.229 127.993 309.815 127.022C310.401 126.052 311.284 125.244 312.366 124.689C313.447 124.134 314.684 123.854 315.937 123.881C317.191 123.908 318.41 124.24 319.46 124.84C320.509 125.441 321.346 126.286 321.878 127.28C322.409 128.274 322.612 129.378 322.466 130.468C322.319 131.558 321.829 132.591 321.048 133.45C320.268 134.309 319.23 134.961 318.05 135.332Z" fill="#FFB6B6"/>
<path d="M266.89 243.128C274.486 253.443 236.303 266.534 221.652 261.279C219.087 260.358 210.262 257.319 216.294 253.105C222.326 248.89 215.594 248.297 215.435 245.554C215.329 243.72 216.951 239.696 215.259 239.869C213.566 240.041 211.586 237.505 215.271 236.413C218.957 235.322 215.311 234.327 215.343 233.291C215.695 221.984 225.604 203.999 225.604 203.999L207.75 243.958C207.75 243.958 207.882 250.871 205.605 248.758C203.328 246.646 203.493 253.483 203.493 253.483C203.493 253.483 200.108 255.552 202.055 256.703C204.002 257.854 199.959 261.394 199.959 261.394L190.526 260.804C190.526 260.804 190.673 254.669 192.284 253.312C193.895 251.955 193.103 249.82 193.103 249.82C193.103 249.82 197.297 246.57 194.486 243.931C190.87 240.537 204.053 183.214 208.602 183.781C209.246 181.041 210.742 178.509 212.926 176.466C215.11 174.424 217.896 172.949 220.977 172.207L231.166 169.751L232.975 163.466H247.321L249.82 167.596L260.727 171.905C262.782 169.367 264.317 166.693 272.73 165.826C272.73 165.826 295.398 147.768 294.291 146.358C293.185 144.948 296.699 141.647 296.699 141.647C296.699 141.647 299.7 140.787 298.006 140.328C296.313 139.869 299.514 138.807 299.514 138.807C299.514 138.807 302.478 138.125 301.08 137.227C299.682 136.329 305.746 135.74 305.746 135.74L313.614 141.36L312.024 143.721C312.024 143.721 312.994 146.936 311.728 145.762C310.463 144.588 310.224 147.994 310.224 147.994C310.224 147.994 309.578 151.724 305.746 152.847C301.914 153.971 299.008 164.646 299.008 164.646C289.97 174.934 279.305 182.96 266.665 188.243C271.591 193.193 266.89 243.128 266.89 243.128Z" fill="white"/>
<path d="M239.08 159.788C246.927 159.788 253.288 154.219 253.288 147.348C253.288 140.478 246.927 134.908 239.08 134.908C231.232 134.908 224.871 140.478 224.871 147.348C224.871 154.219 231.232 159.788 239.08 159.788Z" fill="#FFB6B6"/>
<path d="M224.366 148.703C224.816 151.407 227.448 155.178 226.832 155.178C226.215 155.178 221.833 144.034 226.215 143.308C229.394 142.781 230.104 143.243 233.075 142.115L232.655 142.461C234.621 143.712 237.358 142.941 239.601 142.126C241.85 141.317 244.581 140.545 246.553 141.791C247.791 142.574 248.315 143.934 249.086 145.088C249.856 146.248 251.28 147.344 252.746 146.987C253.923 146.702 254.601 145.547 254.595 144.479C254.589 143.41 253 142.394 253.535 141.435C255.121 138.595 253.695 136.659 250.238 135.322C248.981 135.155 247.724 134.984 246.466 134.809C247.125 134.011 247.924 133.308 248.833 132.727C248.449 131.865 247.785 131.12 246.922 130.585C245.918 130.061 244.673 130.099 243.508 130.153C240.907 130.272 238.309 130.39 235.712 130.509C233.789 130.595 231.799 130.698 230.079 131.47C227.935 132.435 226.53 134.318 225.507 136.234C223.214 140.54 223.578 144.004 224.366 148.703Z" fill="#2F2E41"/>
<path d="M165.258 377.834L305.001 378C305.195 378 305.382 377.932 305.52 377.812C305.657 377.691 305.735 377.528 305.735 377.358C305.735 377.187 305.657 377.024 305.52 376.903C305.382 376.783 305.195 376.715 305.001 376.715L165.258 376.549C165.064 376.549 164.877 376.617 164.739 376.737C164.602 376.858 164.524 377.021 164.524 377.192C164.524 377.362 164.602 377.526 164.739 377.646C164.877 377.767 165.064 377.834 165.258 377.834Z" fill="#CACACA"/>
<path d="M114.717 321.832C114.974 320.282 113.12 318.762 110.575 318.438C108.03 318.114 105.757 319.108 105.5 320.658C105.242 322.208 107.097 323.727 109.642 324.052C112.187 324.376 114.459 323.382 114.717 321.832Z" fill="#E6E6E6"/>
<path d="M145.02 319.243C145.278 317.693 143.424 316.173 140.878 315.849C138.333 315.525 136.061 316.519 135.803 318.069C135.546 319.619 137.4 321.139 139.945 321.463C142.491 321.787 144.763 320.793 145.02 319.243Z" fill="#3F3D56"/>
<path d="M106.419 300.353C106.676 298.803 104.822 297.283 102.277 296.959C99.7315 296.635 97.4594 297.628 97.2018 299.179C96.9441 300.729 98.7986 302.248 101.344 302.573C103.889 302.897 106.161 301.903 106.419 300.353Z" fill="#FF6584"/>
<path d="M93.2511 291.555C93.2634 290.131 92.3567 288.972 91.2259 288.964C90.0952 288.957 89.1685 290.104 89.1562 291.527C89.1439 292.951 90.0506 294.11 91.1814 294.118C92.3122 294.125 93.2388 292.978 93.2511 291.555Z" fill="#E6E6E6"/>
<path d="M88.7856 275.167C88.7979 273.744 87.8913 272.584 86.7605 272.577C85.6297 272.569 84.7031 273.717 84.6908 275.14C84.6785 276.563 85.5852 277.723 86.716 277.73C87.8468 277.738 88.7734 276.59 88.7856 275.167Z" fill="#3F3D56"/>
<path d="M123.51 304.008C123.523 302.585 122.616 301.425 121.485 301.418C120.354 301.41 119.428 302.558 119.415 303.981C119.403 305.404 120.31 306.564 121.441 306.571C122.571 306.579 123.498 305.431 123.51 304.008Z" fill="#E6E6E6"/>
<path d="M108.866 310.409C108.879 308.986 107.972 307.826 106.841 307.819C105.71 307.811 104.784 308.959 104.771 310.382C104.759 311.805 105.666 312.965 106.797 312.973C107.927 312.98 108.854 311.832 108.866 310.409Z" fill="#FF6584"/>
<path d="M129.251 322.241C129.264 320.818 128.357 319.658 127.226 319.65C126.095 319.643 125.169 320.791 125.156 322.214C125.144 323.637 126.051 324.797 127.182 324.804C128.312 324.812 129.239 323.664 129.251 322.241Z" fill="#3F3D56"/>
<path d="M347.672 238.739C347.93 237.188 346.076 235.669 343.53 235.345C340.985 235.02 338.713 236.014 338.455 237.564C338.198 239.115 340.052 240.634 342.598 240.958C345.143 241.283 347.415 240.289 347.672 238.739Z" fill="#E6E6E6"/>
<path d="M377.976 236.15C378.234 234.599 376.379 233.08 373.834 232.756C371.289 232.432 369.017 233.425 368.759 234.976C368.501 236.526 370.356 238.045 372.901 238.369C375.446 238.694 377.719 237.7 377.976 236.15Z" fill="#3F3D56"/>
<path d="M339.374 217.259C339.632 215.709 337.777 214.19 335.232 213.865C332.687 213.541 330.414 214.535 330.157 216.085C329.899 217.635 331.754 219.155 334.299 219.479C336.844 219.803 339.116 218.81 339.374 217.259Z" fill="#FF6584"/>
<path d="M326.207 208.461C326.219 207.038 325.312 205.878 324.182 205.871C323.051 205.863 322.124 207.011 322.112 208.434C322.1 209.857 323.006 211.017 324.137 211.024C325.268 211.032 326.194 209.884 326.207 208.461Z" fill="#E6E6E6"/>
<path d="M321.741 192.074C321.754 190.65 320.847 189.491 319.716 189.483C318.585 189.476 317.659 190.623 317.646 192.046C317.634 193.47 318.541 194.629 319.672 194.637C320.802 194.644 321.729 193.497 321.741 192.074Z" fill="#3F3D56"/>
<path d="M356.466 220.915C356.478 219.491 355.572 218.332 354.441 218.324C353.31 218.317 352.383 219.464 352.371 220.887C352.359 222.311 353.266 223.47 354.396 223.478C355.527 223.485 356.454 222.338 356.466 220.915Z" fill="#E6E6E6"/>
<path d="M341.822 227.316C341.834 225.893 340.927 224.733 339.797 224.726C338.666 224.718 337.739 225.866 337.727 227.289C337.715 228.712 338.621 229.872 339.752 229.879C340.883 229.887 341.81 228.739 341.822 227.316Z" fill="#FF6584"/>
<path d="M362.207 239.147C362.219 237.724 361.313 236.565 360.182 236.557C359.051 236.55 358.124 237.697 358.112 239.12C358.1 240.543 359.007 241.703 360.137 241.711C361.268 241.718 362.195 240.571 362.207 239.147Z" fill="#3F3D56"/>
<path d="M234.892 84.9618C235.15 83.4116 233.295 81.8921 230.75 81.5679C228.205 81.2437 225.933 82.2375 225.675 83.7877C225.418 85.3379 227.272 86.8574 229.817 87.1816C232.363 87.5058 234.635 86.512 234.892 84.9618Z" fill="white"/>
<path d="M265.196 82.3729C265.454 80.8227 263.599 79.3032 261.054 78.979C258.509 78.6548 256.237 79.6486 255.979 81.1988C255.721 82.749 257.576 84.2684 260.121 84.5927C262.666 84.9169 264.938 83.9231 265.196 82.3729Z" fill="#3F3D56"/>
<path d="M226.594 63.4826C226.852 61.9324 224.997 60.4129 222.452 60.0887C219.907 59.7645 217.635 60.7583 217.377 62.3085C217.12 63.8587 218.974 65.3782 221.519 65.7024C224.065 66.0266 226.337 65.0328 226.594 63.4826Z" fill="#FF6584"/>
<path d="M213.427 54.6844C213.439 53.2613 212.532 52.1016 211.401 52.0941C210.271 52.0866 209.344 53.2342 209.332 54.6573C209.319 56.0805 210.226 57.2402 211.357 57.2477C212.488 57.2552 213.414 56.1076 213.427 54.6844Z" fill="#E6E6E6"/>
<path d="M208.961 38.2969C208.973 36.8738 208.067 35.7141 206.936 35.7066C205.805 35.6991 204.879 36.8467 204.866 38.2698C204.854 39.6929 205.761 40.8527 206.891 40.8602C208.022 40.8677 208.949 39.7201 208.961 38.2969Z" fill="#3F3D56"/>
<path d="M243.686 67.1378C243.698 65.7147 242.791 64.5549 241.661 64.5475C240.53 64.54 239.603 65.6876 239.591 67.1107C239.579 68.5338 240.485 69.6936 241.616 69.7011C242.747 69.7085 243.674 68.5609 243.686 67.1378Z" fill="#E6E6E6"/>
<path d="M229.042 73.5392C229.054 72.1161 228.147 70.9564 227.017 70.9489C225.886 70.9414 224.959 72.089 224.947 73.5121C224.935 74.9353 225.841 76.095 226.972 76.1025C228.103 76.11 229.03 74.9624 229.042 73.5392Z" fill="#FF6584"/>
<path d="M249.427 85.3707C249.439 83.9476 248.532 82.7879 247.402 82.7804C246.271 82.7729 245.344 83.9205 245.332 85.3436C245.32 86.7667 246.226 87.9265 247.357 87.934C248.488 87.9415 249.415 86.7938 249.427 85.3707Z" fill="#3F3D56"/>
</g>
<defs>
<clipPath id="clip0_579_3097">
<rect width="378" height="378" fill="white"/>
</clipPath>
</defs>
</svg>
