<svg width="28" height="28" viewBox="0 0 28 28" fill="none" xmlns="http://www.w3.org/2000/svg">
<path d="M14 25.6663C7.55667 25.6663 2.33333 20.4429 2.33333 13.9997C2.33333 7.55635 7.55667 2.33301 14 2.33301C20.4433 2.33301 25.6667 7.55635 25.6667 13.9997C25.6667 20.4429 20.4433 25.6663 14 25.6663ZM14 23.333C19.1547 23.333 23.3333 19.1544 23.3333 13.9997C23.3333 8.84501 19.1547 4.66634 14 4.66634C8.84534 4.66634 4.66666 8.84501 4.66666 13.9997C4.66666 19.1544 8.84534 23.333 14 23.333ZM15.1667 12.2497V17.4997H16.3333V19.833H11.6667V17.4997H12.8333V14.583H11.6667V12.2497H15.1667ZM15.75 9.33301C15.75 10.2995 14.9665 11.083 14 11.083C13.0335 11.083 12.25 10.2995 12.25 9.33301C12.25 8.36651 13.0335 7.58301 14 7.58301C14.9665 7.58301 15.75 8.36651 15.75 9.33301Z" fill="#72BF69"/>
</svg>
