<svg width="28" height="27" viewBox="0 0 28 27" fill="none" xmlns="http://www.w3.org/2000/svg">
<path d="M5.00545 6.02101L0.952148 1.96771L2.71991 0.199951L6.77321 4.25325H25.8254C26.5157 4.25325 27.0754 4.8129 27.0754 5.50325C27.0754 5.6249 27.0576 5.74591 27.0228 5.86244L24.0228 15.8624C23.8641 16.3912 23.3774 16.7533 22.8254 16.7533H7.50545V19.2533H21.2555V21.7533H6.25545C5.56509 21.7533 5.00545 21.1936 5.00545 20.5033V6.02101ZM7.50545 6.75325V14.2533H21.8954L24.1454 6.75325H7.50545ZM6.88045 26.7533C5.84491 26.7533 5.00545 25.9138 5.00545 24.8783C5.00545 23.8427 5.84491 23.0033 6.88045 23.0033C7.91599 23.0033 8.75545 23.8427 8.75545 24.8783C8.75545 25.9138 7.91599 26.7533 6.88045 26.7533ZM21.8805 26.7533C20.8449 26.7533 20.0055 25.9138 20.0055 24.8783C20.0055 23.8427 20.8449 23.0033 21.8805 23.0033C22.916 23.0033 23.7555 23.8427 23.7555 24.8783C23.7555 25.9138 22.916 26.7533 21.8805 26.7533Z" fill="#72BF69"/>
</svg>
