<svg width="22" height="27" viewBox="0 0 22 27" fill="none" xmlns="http://www.w3.org/2000/svg">
<path d="M18.125 10C18.125 5.85786 14.7671 2.5 10.625 2.5C6.48286 2.5 3.125 5.85786 3.125 10V20H18.125V10ZM20.625 20.8334L21.125 21.5C21.3321 21.7761 21.2761 22.1679 21 22.375C20.8919 22.4561 20.7603 22.5 20.625 22.5H0.625C0.279825 22.5 0 22.2201 0 21.875C0 21.7397 0.0438624 21.6081 0.125 21.5L0.625 20.8334V10C0.625 4.47715 5.10215 0 10.625 0C16.1479 0 20.625 4.47715 20.625 10V20.8334ZM7.5 23.75H13.75C13.75 25.4759 12.3509 26.875 10.625 26.875C8.89913 26.875 7.5 25.4759 7.5 23.75Z" fill="#72BF69"/>
</svg>
