<svg width="30" height="30" viewBox="0 0 30 30" fill="none" xmlns="http://www.w3.org/2000/svg">
<path d="M15.0007 18.75C20.1002 18.75 24.3083 22.5671 24.9234 27.5H5.07812C5.69323 22.5671 9.90123 18.75 15.0007 18.75ZM12.7344 21.5994C10.9423 22.1675 9.43296 23.3916 8.50251 25H15.0007L12.7344 21.5994ZM17.2676 21.5996L15.0007 25H21.499C20.5686 23.3919 19.0595 22.1677 17.2676 21.5996ZM22.5008 2.5V10C22.5008 14.1421 19.1429 17.5 15.0007 17.5C10.8586 17.5 7.50076 14.1421 7.50076 10V2.5H22.5008ZM10.0008 10C10.0008 12.7614 12.2393 15 15.0007 15C17.7622 15 20.0008 12.7614 20.0008 10H10.0008ZM20.0008 5H10.0008L10.0006 7.5H20.0006L20.0008 5Z" fill="#72BF69"/>
</svg>
