<svg width="30" height="30" viewBox="0 0 30 30" fill="none" xmlns="http://www.w3.org/2000/svg">
<path d="M5 27.5C5 21.9771 9.47715 17.5 15 17.5C20.5229 17.5 25 21.9771 25 27.5H22.5C22.5 23.3579 19.1421 20 15 20C10.8579 20 7.5 23.3579 7.5 27.5H5ZM15 16.25C10.8562 16.25 7.5 12.8938 7.5 8.75C7.5 4.60625 10.8562 1.25 15 1.25C19.1438 1.25 22.5 4.60625 22.5 8.75C22.5 12.8938 19.1438 16.25 15 16.25ZM15 13.75C17.7625 13.75 20 11.5125 20 8.75C20 5.9875 17.7625 3.75 15 3.75C12.2375 3.75 10 5.9875 10 8.75C10 11.5125 12.2375 13.75 15 13.75Z" fill="#72BF69"/>
</svg>
